<svg width="47" height="30" viewBox="0 0 47 30" fill="none" xmlns="http://www.w3.org/2000/svg">
<g clip-path="url(#clip0_211_741)">
<path d="M43.9965 4.11097C43.9965 4.14478 43.9965 4.18705 43.9877 4.21241C43.9437 4.5421 43.9437 4.87178 43.9701 5.20992C43.9877 5.29445 44.0053 5.37899 44.0758 5.44662C44.1903 5.57342 44.3664 5.54806 44.4369 5.3959C44.4722 5.31982 44.4722 5.24373 44.4545 5.16765C44.3664 4.84642 44.3488 4.50828 44.34 4.17859C44.34 4.16169 44.34 4.13633 44.34 4.11097C44.4369 4.10252 44.525 4.09406 44.6042 4.09406C44.6659 4.08561 44.7188 4.07715 44.7628 4.05179C44.8949 3.98417 44.8949 3.84046 44.754 3.77283C44.7011 3.74747 44.6307 3.73901 44.569 3.73901C44.3488 3.74747 44.1287 3.74747 43.9084 3.74747C43.8292 3.74747 43.7499 3.75593 43.6706 3.76438C43.6266 3.77283 43.5737 3.77283 43.5385 3.79819C43.4768 3.82355 43.4417 3.86582 43.4417 3.92499C43.4504 3.98417 43.4768 4.01798 43.5385 4.04334C43.5737 4.0687 43.6178 4.07715 43.6618 4.07715C43.7675 4.08561 43.882 4.10252 43.9965 4.11097ZM46.4186 4.49983C46.4186 4.50828 46.4274 4.51673 46.4274 4.51673C46.4627 4.74498 46.4979 4.96477 46.5243 5.18456C46.5332 5.26064 46.542 5.32827 46.5948 5.38744C46.7093 5.53115 46.8855 5.51424 46.9647 5.36208C47 5.286 47.0087 5.20992 46.9912 5.12538C46.9383 4.87178 46.9119 4.61817 46.859 4.37303C46.8238 4.22086 46.7798 4.07715 46.7357 3.9419C46.7093 3.85737 46.6477 3.79819 46.542 3.78974C46.4363 3.77283 46.357 3.82355 46.3129 3.89963C46.2601 3.96726 46.2161 4.03489 46.1808 4.11097C46.1192 4.24622 46.0663 4.38148 45.9959 4.50828C45.987 4.5421 45.9782 4.56746 45.9606 4.59281C45.9519 4.57591 45.9431 4.56746 45.9431 4.56746C45.8285 4.35612 45.7228 4.14478 45.6083 3.9419C45.5907 3.92499 45.5819 3.90808 45.5731 3.89118C45.5203 3.8151 45.4586 3.77283 45.3617 3.77283C45.2736 3.78128 45.2031 3.832 45.1592 3.90808C45.1415 3.9419 45.1415 3.96726 45.1327 4.00107C45.0975 4.27159 45.0534 4.5421 45.0182 4.81261C45.0006 4.96477 44.9918 5.11693 44.9918 5.26909C44.983 5.3029 44.9918 5.34517 45.0094 5.37899C45.027 5.44661 45.0799 5.48889 45.1503 5.49734C45.2384 5.50579 45.3 5.48043 45.3265 5.4128C45.3529 5.36208 45.3617 5.31982 45.3705 5.27755C45.4058 5.12539 45.4322 4.98168 45.4586 4.83797C45.4762 4.75343 45.485 4.6858 45.5115 4.59281C45.5291 4.62663 45.5466 4.65199 45.5643 4.67735C45.6435 4.7788 45.7228 4.88024 45.8197 4.96477C45.9166 5.03239 45.9959 5.02394 46.0751 4.94786C46.0928 4.93095 46.1016 4.9225 46.1192 4.90559C46.1985 4.78724 46.2954 4.6689 46.3746 4.55055C46.3922 4.53364 46.401 4.51673 46.4186 4.49983Z" fill="#3A3B7B"/>
<path d="M26.1244 4.27707C26.0632 4.43772 26.0515 4.55346 26.0798 4.64966C26.111 4.78048 26.192 4.82331 26.302 4.79004C27.3366 4.54451 29.6051 5.24143 30.445 5.43567C30.6431 5.47645 30.8042 5.23104 30.6691 5.01101C30.4718 4.79793 28.2043 3.88563 27.3391 3.83589C26.9999 3.81749 26.3936 3.73403 26.1244 4.27707Z" fill="#3A3B7B"/>
<path d="M34.9904 1.32388C35.1006 1.38496 35.1622 1.44322 35.1927 1.50832C35.238 1.59371 35.2141 1.65279 35.1379 1.68294C34.4541 2.00327 33.5441 3.38236 33.1768 3.85799C33.0877 3.96741 32.8823 3.90382 32.8513 3.72389C32.8577 3.52044 33.6643 2.02383 34.1145 1.6162C34.2915 1.45705 34.5837 1.14478 34.9904 1.32388Z" fill="#3A3B7B"/>
<path d="M29.5445 0.644994C29.6769 0.549177 29.8146 0.5156 29.8849 0.577869C30.9167 1.42477 31.4638 2.7659 31.8026 3.99369C31.8154 4.02229 31.8162 4.06334 31.806 4.10616C31.8017 4.14276 31.7739 4.18142 31.7296 4.21134C31.6824 4.24436 31.6417 4.25442 31.6225 4.22596C31.1703 3.63563 28.5875 1.33877 29.5445 0.644994Z" fill="#3A3B7B"/>
<path d="M7.69524 15.3281C7.94253 15.1514 8.21137 15.0043 8.49586 14.8901C8.7935 14.8084 9.11075 14.8219 9.39966 14.9287C9.68851 15.0355 9.93338 15.2296 10.0971 15.4818C10.2435 15.7333 10.3008 16.0237 10.2604 16.3092C10.2199 16.5946 10.084 16.8598 9.87289 17.0647C9.70926 17.2308 9.52348 17.3755 9.3205 17.495C8.41582 18.056 7.50308 18.5862 6.59039 19.1471C6.40363 19.2875 6.20551 19.4134 5.99793 19.5236C5.68217 19.6748 5.32132 19.7152 4.97776 19.6381C4.6342 19.5609 4.32955 19.3709 4.11648 19.101C3.95719 18.9099 3.82277 18.7009 3.71616 18.4786C2.8515 16.7343 1.95481 14.9977 1.12217 13.2226C0.737866 12.4542 0.425627 11.5705 0.121393 10.7176C-0.010233 10.4698 -0.0359366 10.1825 0.0497553 9.91673C0.135447 9.65099 0.325774 9.42782 0.580249 9.29468C0.834727 9.16155 1.13327 9.12899 1.4124 9.20386C1.69152 9.27873 1.92921 9.45517 2.0749 9.69561C2.52271 10.2668 2.91911 10.8735 3.25981 11.5091C4.12448 13.0459 4.94912 14.5827 5.78176 16.0734C5.83024 16.1558 5.8837 16.2353 5.94188 16.3116C6.56859 16.0587 7.15803 15.7281 7.69524 15.3281Z" fill="#3A3B7B"/>
<path d="M16.6354 14.792C14.6579 17.0127 11.3433 16.4517 9.67801 13.5932C8.49308 11.5646 8.28493 8.21434 10.8629 6.10121C11.4135 5.6588 12.0717 5.35743 12.7764 5.22521C13.6404 5.10633 14.5214 5.25262 15.2936 5.64318C16.0657 6.03375 16.6895 6.64858 17.0757 7.39983C18.4848 9.85877 18.2847 12.9939 16.6354 14.792ZM15.8347 9.61286C15.6247 9.00861 15.2032 8.49274 14.6418 8.15284C14.3242 7.93554 13.9382 7.82989 13.5489 7.85368C13.1595 7.87748 12.7906 8.02926 12.5042 8.28348C11.3593 9.25939 11.1191 11.5723 11.9517 12.9478C12.0579 13.1721 12.2137 13.3714 12.4085 13.5318C12.6033 13.6922 12.8323 13.8099 13.0793 13.8765C13.3264 13.9431 13.5857 13.9571 13.839 13.9175C14.0923 13.8778 14.3335 13.7855 14.5458 13.647C15.1664 13.1852 15.6217 12.5493 15.8484 11.8277C16.0751 11.1061 16.062 10.3346 15.8108 9.62057L15.8347 9.61286Z" fill="#3A3B7B"/>
<path d="M24.7055 10.5811C24.5031 10.6228 24.294 10.6254 24.0904 10.5884C23.887 10.5514 23.6932 10.4758 23.5207 10.3659C23.3697 10.283 23.2397 10.1691 23.14 10.0322C23.0405 9.89528 22.9737 9.73894 22.9446 9.5743C22.9155 9.40973 22.9248 9.241 22.9718 9.08025C23.0188 8.91949 23.1024 8.77074 23.2164 8.64465C23.4152 8.3913 23.6973 8.20992 24.0171 8.12984C24.8518 7.89731 25.7112 7.75554 26.579 7.70723C26.7697 7.68594 26.9629 7.70143 27.1472 7.75277C27.3316 7.80418 27.5033 7.89032 27.6525 8.00632C27.8016 8.12226 27.9252 8.26568 28.0158 8.42808C28.1064 8.59048 28.1623 8.76863 28.1802 8.95205C28.4304 9.85303 28.4578 10.7977 28.2603 11.7107C27.5398 14.6614 25.0578 15.6756 22.2717 14.7305C21.4896 14.4778 20.8039 14.007 20.3022 13.3781C19.633 12.6208 19.1586 11.7233 18.9171 10.7578C18.7214 9.89805 18.7428 9.0059 18.9797 8.15574C19.2164 7.30558 19.6616 6.52208 20.2781 5.8707C20.8632 5.16273 21.6226 4.60555 22.4879 4.24935C23.0346 3.9601 23.6744 3.87786 24.2813 4.01882C24.4189 4.05539 24.5439 4.12664 24.6432 4.22518C24.7425 4.32373 24.8125 4.44597 24.846 4.57924C24.8795 4.71251 24.8752 4.85195 24.8336 4.98311C24.792 5.11427 24.7147 5.23235 24.6095 5.32513C24.4096 5.49883 24.1924 5.65326 23.961 5.78618C23.2492 6.22122 22.6298 6.78181 22.1356 7.43825C21.8116 7.86304 21.5885 8.35083 21.482 8.86723C21.3755 9.38363 21.3881 9.91617 21.5191 10.4274C21.7007 11.1245 22.1036 11.7502 22.672 12.2178C24.4333 13.7547 26.7231 12.2716 26.3228 10.1738C25.7384 10.3122 25.226 10.4581 24.7055 10.5811Z" fill="#3A3B7B"/>
<path d="M35.466 14.9149C32.864 16.4518 29.9017 14.9149 29.2532 11.6876C28.7809 9.38237 29.6776 6.15501 32.816 4.92555C33.4838 4.66959 34.208 4.57973 34.9216 4.66429C35.779 4.81492 36.5655 5.22002 37.1702 5.82248C37.7748 6.42492 38.1674 7.19432 38.2922 8.02227C38.8206 10.7655 37.6197 13.6932 35.466 14.9149ZM36.3708 9.74349C36.37 9.10516 36.1347 8.48746 35.7062 7.9992C35.4772 7.69721 35.1461 7.48083 34.7695 7.38691C34.3927 7.29305 33.9938 7.32746 33.6406 7.48439C32.2315 8.06834 31.2388 10.1892 31.5991 11.7491C31.6266 11.9939 31.7094 12.23 31.8419 12.4408C31.9744 12.6517 32.1532 12.8322 32.366 12.9698C32.5787 13.1074 32.8202 13.1987 33.0736 13.2374C33.327 13.276 33.5861 13.2611 33.8328 13.1937C34.5776 12.944 35.2225 12.4773 35.6774 11.8587C36.1325 11.2401 36.3749 10.5007 36.3708 9.74349Z" fill="#3A3B7B"/>
<path d="M40.9235 15.5604C40.8843 15.8417 40.7302 16.0964 40.4952 16.2686C40.2602 16.4408 39.9636 16.5164 39.6706 16.4787C39.3776 16.441 39.1122 16.2931 38.9328 16.0675C38.7533 15.8421 38.6746 15.5573 38.7139 15.2761C38.7531 14.9949 38.9072 14.7401 39.1422 14.5679C39.3772 14.3957 39.6738 14.3202 39.9668 14.3579C40.2598 14.3956 40.5252 14.5434 40.7047 14.7689C40.8841 14.9945 40.9629 15.2792 40.9235 15.5604ZM40.227 5.1945C40.3793 4.9713 40.6027 4.80133 40.8638 4.70993C41.125 4.61853 41.4099 4.61061 41.6761 4.68735C41.9468 4.75234 42.1859 4.9046 42.3535 5.11863C42.5211 5.33266 42.607 5.59546 42.5969 5.86302C42.5616 6.2922 42.4947 6.71846 42.3967 7.13857C42.1325 8.56017 41.8763 9.9817 41.5961 11.3879C41.468 11.9489 41.2999 12.4868 41.1157 13.0554C41.0516 13.2331 40.9446 13.3937 40.8035 13.5241C40.7157 13.6222 40.6037 13.6974 40.4776 13.7428C40.3515 13.7883 40.2155 13.8024 40.0822 13.7841C39.949 13.7657 39.8226 13.7153 39.715 13.6377C39.6073 13.56 39.5219 13.4575 39.4665 13.3397C39.3713 13.1284 39.3196 12.9013 39.3143 12.6712C39.3143 11.7183 39.3143 10.7578 39.3784 9.79728C39.4872 8.4265 39.7013 7.06527 40.0189 5.72471C40.0563 5.5451 40.1267 5.37335 40.227 5.21756V5.1945Z" fill="#3A3B7B"/>
<path fill-rule="evenodd" clip-rule="evenodd" d="M4.31263 21.7353C4.2181 21.9378 4.19218 22.1636 4.23837 22.3809C4.2691 22.6674 4.3366 22.9491 4.43933 23.2197C4.56759 23.5511 4.71111 23.8788 4.88807 24.2827C4.92876 24.3757 4.97129 24.4727 5.01579 24.5748C5.25443 25.1219 5.55386 25.8212 5.95326 26.8333C6.06631 27.1208 6.1667 27.4106 6.26779 27.7025C6.30862 27.8204 6.34961 27.9387 6.39156 28.0573C6.54193 28.4788 6.80067 28.8575 7.14364 29.1577C7.28927 29.3227 7.48244 29.4429 7.69904 29.503C7.91988 29.5643 8.15474 29.5604 8.37323 29.4918C8.59171 29.4232 8.7836 29.2931 8.924 29.1184C9.06164 28.9471 9.14349 28.7407 9.1594 28.525C9.2487 28.1049 9.21822 27.6693 9.07104 27.2643C8.83745 26.5918 8.57136 25.9184 8.26452 25.2597L8.26311 25.2568C7.75833 24.2262 7.24523 23.2028 6.70784 22.179L6.70382 22.1718C6.5465 21.9051 6.34206 21.6666 6.09967 21.4672C5.94232 21.2891 5.72526 21.169 5.48556 21.1277C5.24076 21.0854 4.98827 21.128 4.77319 21.2479C4.56972 21.3594 4.40843 21.53 4.31263 21.7353Z" fill="#3A3B7B"/>
<path fill-rule="evenodd" clip-rule="evenodd" d="M12.0224 19.1976C11.2309 19.0008 10.4043 18.9722 9.60018 19.1136C8.97737 19.1725 8.36482 19.3104 7.93947 19.5835C7.72314 19.7225 7.54823 19.901 7.45094 20.1278C7.35311 20.3559 7.34063 20.6168 7.42079 20.9075C7.56717 21.4399 7.75725 21.9575 7.94666 22.4735L7.97734 22.5571L7.97808 22.559C8.54839 24.058 9.12414 25.5519 9.70513 27.0408C9.77288 27.2754 9.86869 27.5017 9.99062 27.7152L9.9929 27.7192C10.154 27.9844 10.3606 28.2216 10.604 28.4208C10.7257 28.5304 10.8762 28.6062 11.0395 28.6401C11.2043 28.6742 11.3757 28.6643 11.535 28.6113C11.6944 28.5584 11.8356 28.4645 11.9431 28.3398C12.049 28.2171 12.1182 28.0693 12.1437 27.9121C12.2487 27.4849 12.2151 27.037 12.0472 26.6286C11.9948 26.4912 11.9537 26.3508 11.9104 26.2029C11.896 26.1536 11.8814 26.1035 11.8659 26.0524C13.1958 25.5535 14.6109 24.8826 15.1085 23.3218C15.3033 22.7825 15.3195 22.1985 15.1549 21.6499C14.9901 21.1006 14.6521 20.6138 14.1873 20.2565C13.5548 19.7562 12.8159 19.3948 12.0224 19.1976ZM9.82847 21.1119C9.85466 21.1047 9.88104 21.0979 9.9075 21.0917C10.7733 20.961 11.6591 21.1351 12.4019 21.5817C12.7292 21.8002 12.8633 22.0429 12.8863 22.2765C12.9101 22.517 12.8189 22.7776 12.6359 23.0282C12.2901 23.5014 11.6589 23.8802 11.0888 23.9508C10.6732 23.0321 10.2511 22.0763 9.82847 21.1119Z" fill="#3A3B7B"/>
<path d="M17.2991 17.5161C18.2417 17.0983 19.4092 17.0261 20.3228 17.3199C20.5529 17.3842 20.7525 17.5233 20.8876 17.7135C21.0217 17.9024 21.0836 18.1301 21.0629 18.3578C21.0616 18.5056 21.0238 18.651 20.9527 18.7821C20.8803 18.9157 20.7755 19.0305 20.6471 19.1169C20.5187 19.2033 20.3706 19.2589 20.2151 19.2787C20.0596 19.2987 19.9015 19.2823 19.754 19.2311L19.7428 19.2272L19.7322 19.2219C19.6568 19.184 19.5766 19.1554 19.4937 19.1368L19.4884 19.1357C18.8457 18.9719 18.2395 19.2434 18.0181 19.5769C17.9125 19.736 17.8994 19.8965 17.9873 20.0426C18.0815 20.199 18.3126 20.3745 18.7801 20.4996C18.9087 20.5335 19.0405 20.5661 19.1741 20.5994C19.5438 20.6912 19.928 20.7867 20.2995 20.919L20.3009 20.9195C22.0148 21.5454 22.653 22.8416 22.4345 24.0608C22.2184 25.2665 21.1693 26.3637 19.5916 26.6225C19.0176 26.7447 18.4201 26.7209 17.8585 26.5535C17.2954 26.3857 16.7879 26.0794 16.3863 25.6649L16.3758 25.6541C16.2491 25.498 16.1638 25.3146 16.126 25.1199C16.0912 24.9443 16.1095 24.7628 16.1787 24.5968C16.2474 24.4317 16.3637 24.2889 16.5138 24.1848C16.6723 24.0668 16.8634 23.9961 17.0634 23.9813C17.2628 23.9666 17.4623 24.0082 17.6373 24.1009C17.8121 24.1819 17.9748 24.2853 18.1207 24.4083L18.1235 24.4106C18.3817 24.6372 18.6941 24.6963 18.9937 24.6416C19.2977 24.5861 19.5835 24.4135 19.7673 24.1844C19.95 23.9568 20.0233 23.6865 19.9363 23.424C19.8487 23.1597 19.5854 22.8635 19.007 22.6159C18.8558 22.5542 18.699 22.5045 18.5359 22.4562C18.492 22.4431 18.4472 22.4301 18.402 22.4169C18.2814 22.3818 18.1573 22.3456 18.0357 22.3058C17.9519 22.2783 17.8687 22.2524 17.7864 22.2266C17.5614 22.1563 17.3421 22.0877 17.131 21.9958C16.6715 21.8456 16.2746 21.5574 15.9992 21.1736C15.7227 20.7883 15.5836 20.3275 15.6025 19.8601C15.604 18.721 16.3515 17.9362 17.2991 17.5161Z" fill="#3A3B7B"/>
<path d="M29.2488 17.3947C29.066 17.3091 28.8639 17.2684 28.6607 17.2764C28.4575 17.2844 28.2595 17.3408 28.0848 17.4407C27.9111 17.5398 27.7656 17.6786 27.6614 17.8448C27.5659 17.9847 27.4998 18.1412 27.4668 18.3055C27.4338 18.4697 27.4346 18.6384 27.4691 18.8022C27.5031 19.0127 27.5408 19.2174 27.5781 19.4193C27.6398 19.7534 27.6998 20.0799 27.7394 20.4129L27.7409 20.4214C27.8311 20.9436 27.8783 21.4717 27.8825 22.0009L27.8829 22.0084C27.9138 22.58 27.7108 23.1404 27.3177 23.5708L27.3115 23.5785C27.1836 23.7358 27.0126 23.8559 26.8175 23.9253C26.6225 23.9947 26.4113 24.0106 26.2074 23.9714C26.0035 23.9321 25.815 23.8391 25.663 23.7029C25.511 23.5667 25.4013 23.392 25.3466 23.1995C25.2298 22.7937 25.1622 22.3763 25.145 21.9557L25.3445 18.9065C25.3475 18.8667 25.3508 18.8258 25.3543 18.7846C25.3619 18.692 25.3696 18.5977 25.3729 18.5097C25.3776 18.3802 25.3735 18.2471 25.3421 18.1211C25.31 17.9923 25.2488 17.8698 25.1403 17.7654C25.0329 17.6621 24.8878 17.5859 24.7053 17.5341C24.3753 17.4424 24.0963 17.4453 23.8638 17.54C23.6311 17.6347 23.4717 17.8106 23.3589 18.0137C23.247 18.2151 23.1751 18.4536 23.1207 18.6924C23.0803 18.8697 23.0479 19.0557 23.0171 19.2328C23.0064 19.2938 22.996 19.3538 22.9855 19.412L22.9852 19.4137C22.8203 20.3849 22.7712 21.371 22.8389 22.353C22.8515 22.8836 22.9668 23.4074 23.179 23.8975C23.4183 24.53 23.8519 25.078 24.4224 25.4691C24.9941 25.8611 25.6763 26.0771 26.3788 26.0885C27.0812 26.0999 27.7707 25.9062 28.356 25.5331C28.9402 25.1605 29.393 24.6265 29.6545 24.0017C30.0202 23.2059 30.192 22.3404 30.1565 21.4712C30.135 20.8366 30.0991 20.1971 30.0633 19.5609C30.0457 19.2488 30.0281 18.9374 30.0124 18.6279C30.0045 18.3175 29.8979 18.0169 29.7068 17.7664C29.5886 17.608 29.4312 17.4803 29.2488 17.3947Z" fill="#3A3B7B"/>
<path d="M35.7174 22.1758C35.6988 22.1984 35.6793 22.2218 35.6589 22.2462C35.5102 21.4231 35.3725 20.6003 35.2345 19.7762C35.185 19.4806 35.1352 19.1836 35.0852 18.8876L35.0796 18.8546L35.0613 18.826C35.0269 18.7723 35.0234 18.7196 35.0234 18.6073V18.5943L35.0214 18.5815C34.984 18.3496 34.8747 18.1337 34.7077 17.9622C34.5412 17.7912 34.325 17.6721 34.0871 17.6205C33.8496 17.5643 33.6 17.5766 33.3698 17.6561C33.1402 17.7354 32.94 17.8779 32.7943 18.0658C32.6732 18.2099 32.5739 18.3698 32.4995 18.5406C32.3306 18.9087 32.1603 19.2776 31.9895 19.6476L31.9865 19.654C31.5601 20.5775 31.1308 21.5073 30.7139 22.4444L30.7127 22.4475C30.4568 23.0551 30.2456 23.6953 30.0351 24.3336C29.993 24.461 29.951 24.5883 29.9086 24.7153C29.8326 24.9167 29.7994 25.1307 29.8108 25.3446C29.797 25.536 29.8447 25.727 29.9477 25.8917C30.0527 26.0598 30.21 26.192 30.3974 26.2699C30.596 26.3534 30.8181 26.3712 31.0284 26.3203C31.2383 26.2695 31.4247 26.1532 31.5583 25.9897C31.7288 25.7884 31.8755 25.5688 31.9952 25.3361C32.3483 24.6429 32.6857 23.9412 33.0216 23.2426C33.1516 22.9724 33.2779 22.7303 33.4216 22.4668C33.4315 22.4993 33.4416 22.531 33.452 22.5627C33.6026 23.1991 33.8568 23.8086 34.2052 24.369C34.2711 24.4877 34.363 24.5914 34.4744 24.6731C34.5872 24.7557 34.7174 24.8137 34.8559 24.8432C34.9944 24.8726 35.138 24.8728 35.2766 24.8436C35.415 24.8144 35.5455 24.7564 35.6584 24.6741L35.8818 24.5136L37.6156 23.1119L37.5131 23.7391C37.3724 24.6011 37.2327 25.4559 37.0843 26.311C36.9872 26.69 36.9874 27.0858 37.0847 27.4647C37.1269 27.6779 37.2343 27.8741 37.3933 28.0285C37.5537 28.1841 37.759 28.2898 37.9827 28.332C38.2064 28.3741 38.4382 28.3508 38.6479 28.2649C38.8545 28.1804 39.0303 28.0389 39.1532 27.8587C39.4391 27.5182 39.617 27.1061 39.6659 26.6713C39.7395 26.0573 39.8226 25.4349 39.9058 24.8127C40.0016 24.0956 40.0974 23.3786 40.1783 22.6754L40.1786 22.6733C40.2565 21.9035 40.2942 21.1306 40.2915 20.3572C40.3086 20.1128 40.2452 19.8694 40.1101 19.6613C39.9746 19.4525 39.7738 19.2901 39.5365 19.1973C39.2897 19.0896 39.0134 19.0608 38.7483 19.1152C38.4849 19.1693 38.2464 19.3025 38.0676 19.4956C37.7478 19.7795 37.4478 20.0832 37.1695 20.4049L37.1676 20.4071C36.8638 20.7705 36.562 21.1409 36.2622 21.509C36.0799 21.7328 35.8982 21.956 35.7174 22.1758Z" fill="#3A3B7B"/>
</g>
<defs>
<clipPath id="clip0_211_741">
<rect width="47" height="29" fill="white" transform="translate(0 0.546265)"/>
</clipPath>
</defs>
</svg>
