<svg width="55" height="31" viewBox="0 0 55 31" fill="none" xmlns="http://www.w3.org/2000/svg">
<g clip-path="url(#clip0_211_723)">
<path d="M54.9957 11.2159C55.0015 11.1742 55.0015 11.1321 54.9957 11.0904C55.0011 11.0564 55.0011 11.0217 54.9957 10.9877L54.5883 8.05504C54.5295 7.70418 54.3723 7.37625 54.1344 7.10792L54.0645 7.02804L53.9365 6.90251L46.8829 0.94594L47.0808 1.13994C46.9189 0.950059 46.7157 0.798178 46.4861 0.695487C46.2565 0.592795 46.0062 0.541902 45.7539 0.546563H43.6122C43.2639 0.539798 42.9236 0.64835 42.6461 0.854666C42.3547 0.649593 42.0038 0.541596 41.6451 0.546563H39.5034C39.2225 0.542095 38.9454 0.610438 38.7001 0.744693C38.4549 0.878947 38.2501 1.07435 38.1067 1.3111C37.8855 1.64925 37.8023 2.05667 37.8738 2.45221L38.1416 4.30079C37.9642 4.20223 37.7635 4.15109 37.5596 4.15247H27.1887C26.8166 4.15475 26.4531 4.26167 26.1411 4.46055C25.8395 4.64567 25.5973 4.91073 25.4428 5.22509L24.6396 4.55184C24.3235 4.26511 23.9063 4.10969 23.4757 4.11823H7.20353C6.83012 4.1249 6.46501 4.22717 6.14436 4.41491C5.70569 4.66663 5.38421 5.07591 5.24809 5.55602L0.0801167 22.5015C-0.0164452 22.7807 -0.0259442 23.0818 0.0528362 23.3664C0.131617 23.6508 0.295109 23.906 0.522426 24.099C0.581658 24.1482 0.643851 24.194 0.708664 24.2359C0.708664 24.2359 0.603891 24.1674 0.545692 24.1104L7.59931 30.0784C7.89769 30.3477 8.28781 30.4983 8.69336 30.5006H25.0936C25.4681 30.4911 25.8335 30.3848 26.1528 30.1925C26.3334 30.0957 26.495 29.9682 26.63 29.8159L26.6882 29.736L26.7813 29.622L26.8512 29.4964L27.6194 30.1469C27.9135 30.4055 28.2951 30.5478 28.6902 30.5463H45.1253C45.4994 30.534 45.8641 30.428 46.1845 30.2382C46.361 30.1355 46.5217 30.0087 46.6618 29.8616L46.7199 29.7817L46.813 29.6676C46.8625 29.5954 46.9055 29.5191 46.941 29.4393C46.9791 29.3702 47.0103 29.2976 47.0342 29.2226L51.7482 13.7492V13.6122C51.754 13.5591 51.754 13.5056 51.7482 13.4525V13.3498C51.7539 13.3158 51.7539 13.2811 51.7482 13.2471C51.7535 13.1749 51.7535 13.1025 51.7482 13.0302H53.2614C53.393 13.0421 53.5255 13.0421 53.6571 13.0302H53.7619C53.8471 13.0053 53.9291 12.9708 54.0063 12.9276H54.1227L54.3322 12.7678L54.4253 12.6993L54.5883 12.4939V12.4255L54.7047 12.2315C54.6982 12.1938 54.6982 12.1551 54.7047 12.1174C54.6985 12.0989 54.6985 12.0789 54.7047 12.0603C54.7294 11.9934 54.7489 11.9247 54.7629 11.8549C54.7575 11.8324 54.7575 11.8089 54.7629 11.7864C54.7572 11.7525 54.7572 11.7177 54.7629 11.6838C54.7629 11.6838 54.9957 11.2387 54.9957 11.2159Z" fill="black"/>
<path d="M23.9529 5.41911C24.0147 5.47389 24.0579 5.54592 24.0766 5.6255C24.0954 5.70507 24.0887 5.78836 24.0577 5.86414L18.9014 22.7982C18.8365 22.983 18.7036 23.1376 18.5289 23.2318C18.3868 23.325 18.2222 23.3801 18.0517 23.3916H1.66316C1.5232 23.385 1.39061 23.3281 1.29069 23.2318C1.23125 23.1779 1.18954 23.1078 1.17088 23.0307C1.15221 22.9534 1.15747 22.8725 1.18594 22.7982L6.35391 5.86414C6.41346 5.67692 6.54212 5.51822 6.71474 5.41911C6.85924 5.33258 7.023 5.28167 7.19196 5.27076H23.5805C23.7193 5.27207 23.8525 5.32511 23.9529 5.41911ZM15.3978 19.3863L18.4823 9.27604H9.84581L6.77292 19.3863H15.3978ZM39.5965 5.59027C39.6525 5.65397 39.7223 5.70449 39.801 5.73808C39.8796 5.77166 39.9648 5.78745 40.0505 5.78426H42.1805C42.2617 5.78504 42.3416 5.76554 42.4129 5.7276C42.4842 5.68967 42.5444 5.63454 42.5879 5.56745C42.6257 5.51504 42.6525 5.4557 42.6665 5.39297C42.6804 5.33025 42.6814 5.26541 42.6694 5.2023L42.2504 2.18978C42.2105 2.05035 42.1388 1.92161 42.0409 1.81321C41.9849 1.7495 41.9151 1.69898 41.8365 1.6654C41.7579 1.63181 41.6726 1.61603 41.5869 1.61922H39.4569C39.3758 1.61845 39.2958 1.63795 39.2245 1.67588C39.1532 1.71382 39.093 1.76894 39.0495 1.83604C38.968 1.99579 38.9331 2.09849 38.968 2.18978L39.3987 5.2023C39.4208 5.34899 39.4901 5.48491 39.5965 5.59027ZM46.3592 2.16695C46.3192 2.02752 46.2476 1.89878 46.1496 1.79039C46.0961 1.72691 46.0283 1.67641 45.9516 1.64276C45.8749 1.60913 45.7913 1.59326 45.7073 1.5964H43.5656C43.4859 1.59417 43.407 1.61315 43.3373 1.65131C43.2676 1.68948 43.2098 1.74543 43.1699 1.81321C43.0925 1.91444 43.0589 2.04161 43.0768 2.16695L43.5074 5.17947C43.5345 5.32461 43.6031 5.45919 43.7053 5.56745C43.7622 5.62991 43.8323 5.67958 43.9107 5.71306C43.989 5.74654 44.0738 5.76304 44.1592 5.76143H46.301C46.3806 5.76246 46.4589 5.74298 46.5284 5.70493C46.5979 5.66687 46.6559 5.61161 46.6967 5.54463C46.7372 5.49358 46.7655 5.43427 46.7796 5.37109C46.7937 5.30791 46.7932 5.24244 46.7782 5.17947L46.3592 2.16695ZM37.7226 6.73138L37.513 5.24794H27.1888C27.0267 5.2567 26.8698 5.30793 26.7348 5.39628C26.6491 5.44211 26.5744 5.50564 26.5162 5.58247C26.458 5.65931 26.4174 5.74761 26.3973 5.84132L25.5359 8.67124C25.5016 8.74196 25.4898 8.82131 25.5023 8.89871C25.5148 8.97611 25.5508 9.04796 25.6058 9.10489C25.7039 9.19534 25.832 9.24806 25.9666 9.25324H38.5141L35.4296 19.3635H22.917C22.7557 19.3671 22.5986 19.4145 22.4631 19.5003C22.2985 19.6029 22.1783 19.7613 22.1256 19.9454L21.2526 22.7754C21.2241 22.848 21.2166 22.9269 21.231 23.0034C21.2454 23.0799 21.281 23.151 21.334 23.2089C21.4291 23.3055 21.5582 23.3626 21.6949 23.3687H38.1299C38.2999 23.3544 38.4638 23.2995 38.6071 23.2089C38.779 23.1143 38.908 22.9594 38.968 22.7754L43.6936 7.30193H38.3744C38.29 7.30356 38.2062 7.2882 38.1281 7.2568C38.05 7.2254 37.9794 7.1786 37.9205 7.11935C37.8242 7.01587 37.7562 6.89029 37.7226 6.7542V6.73138Z" fill="white"/>
</g>
<defs>
<clipPath id="clip0_211_723">
<rect width="55" height="30" fill="white" transform="translate(0 0.546265)"/>
</clipPath>
</defs>
</svg>
