<svg width="41" height="41" viewBox="0 0 41 41" fill="none" xmlns="http://www.w3.org/2000/svg">
<g clip-path="url(#clip0_211_712)">
<path fill-rule="evenodd" clip-rule="evenodd" d="M10.3533 0.893982C15.8761 0.893982 20.3533 5.37113 20.3533 10.894V0.893982H30.3533C35.8761 0.893982 40.3533 5.37113 40.3533 10.894C40.3533 16.4168 35.8761 20.894 30.3533 20.894C35.8761 20.894 40.3533 25.3712 40.3533 30.894C40.3533 33.6363 39.2494 36.1208 37.4618 37.9274L37.4244 37.9651L37.3912 37.9981C35.5842 39.7883 33.0979 40.894 30.3533 40.894C27.6274 40.894 25.1562 39.8033 23.3523 38.0345C23.3289 38.0115 23.3055 37.9883 23.2822 37.9651C23.2603 37.9432 23.2385 37.9212 23.2168 37.8991C21.4457 36.0949 20.3533 33.622 20.3533 30.894C20.3533 36.4168 15.8761 40.894 10.3533 40.894C4.83048 40.894 0.353333 36.4168 0.353333 30.894V20.894H10.3533C4.83048 20.894 0.353333 16.4168 0.353333 10.894C0.353333 5.37113 4.83048 0.893982 10.3533 0.893982ZM18.3533 10.894C18.3533 15.3123 14.7716 18.894 10.3533 18.894V2.89398C14.7716 2.89398 18.3533 6.4757 18.3533 10.894ZM38.3533 30.894C38.3533 26.4757 34.7716 22.894 30.3533 22.894C25.935 22.894 22.3533 26.4757 22.3533 30.894H38.3533ZM2.35333 22.894V30.894C2.35333 35.3123 5.93505 38.894 10.3533 38.894C14.7716 38.894 18.3533 35.3123 18.3533 30.894V22.894H2.35333ZM22.3533 18.894V2.89398H30.3533C34.7716 2.89398 38.3533 6.4757 38.3533 10.894C38.3533 15.3123 34.7716 18.894 30.3533 18.894H22.3533Z" fill="#5417D7"/>
</g>
<defs>
<clipPath id="clip0_211_712">
<rect width="40" height="40" fill="white" transform="translate(0.353333 0.893982)"/>
</clipPath>
</defs>
</svg>
