<svg width="52" height="21" viewBox="0 0 52 21" fill="none" xmlns="http://www.w3.org/2000/svg">
<g clip-path="url(#clip0_211_765)">
<path d="M12.3431 0.546265C10.3124 0.546265 8.36487 1.35296 6.92893 2.7889L2.24264 7.4752C0.8067 8.91113 0 10.8587 0 12.8894C0 17.1182 3.42809 20.5463 7.65687 20.5463C9.6876 20.5463 11.6351 19.7395 13.0711 18.3036L16.3126 15.0621C16.3126 15.062 16.3127 15.0621 16.3126 15.0621L25.7573 5.61733C26.4431 4.93154 27.3733 4.54626 28.3431 4.54626C29.9669 4.54626 31.3435 5.60454 31.8207 7.06898L34.8015 4.08824C33.4417 1.95849 31.0573 0.546265 28.3431 0.546265C26.3124 0.546265 24.3649 1.35296 22.9289 2.7889L10.2427 15.4752C9.55687 16.161 8.62673 16.5463 7.65687 16.5463C5.63723 16.5463 4 14.9091 4 12.8894C4 11.9195 4.38527 10.9894 5.07107 10.3036L9.75733 5.61733C10.4431 4.93154 11.3733 4.54626 12.3431 4.54626C13.9669 4.54626 15.3435 5.60459 15.8207 7.06907L18.8015 4.08831C17.4417 1.95853 15.0574 0.546265 12.3431 0.546265Z" fill="#394149"/>
<path d="M26.2427 15.4752C25.5569 16.161 24.6268 16.5463 23.6569 16.5463C22.0334 16.5463 20.6569 15.4883 20.1795 14.0241L17.1989 17.0047C18.5587 19.1342 20.9429 20.5463 23.6569 20.5463C25.6877 20.5463 27.6352 19.7395 29.0711 18.3036L41.7574 5.61733C42.4432 4.93154 43.3733 4.54626 44.3432 4.54626C46.3629 4.54626 48 6.18349 48 8.20313C48 9.173 47.6148 10.1031 46.929 10.7889L42.2427 15.4752C41.5569 16.161 40.6268 16.5463 39.6569 16.5463C38.0332 16.5463 36.6567 15.4881 36.1794 14.0237L33.1987 17.0045C34.5585 19.1341 36.9428 20.5463 39.6569 20.5463C41.6876 20.5463 43.6352 19.7395 45.0711 18.3036L49.7574 13.6173C51.1933 12.1814 52 10.2339 52 8.20313C52 3.97436 48.572 0.546265 44.3432 0.546265C42.3125 0.546265 40.3649 1.35296 38.929 2.7889L26.2427 15.4752Z" fill="#394149"/>
</g>
<defs>
<clipPath id="clip0_211_765">
<rect width="52" height="20" fill="white" transform="translate(0 0.546265)"/>
</clipPath>
</defs>
</svg>
