<svg width="41" height="29" viewBox="0 0 41 29" fill="none" xmlns="http://www.w3.org/2000/svg">
<g clip-path="url(#clip0_211_718)">
<path fill-rule="evenodd" clip-rule="evenodd" d="M10.0981 4.66088L0.112305 14.5463C2.10964 16.5236 4.39129 18.19 6.87894 19.4937C7.56655 21.2993 8.64433 22.9926 10.1123 24.4458C15.6352 29.9131 24.5895 29.9131 30.1123 24.4458C31.5803 22.9926 32.6581 21.2993 33.3457 19.4936C35.8333 18.19 38.115 16.5236 40.1123 14.5463L30.1346 4.66892C30.1272 4.66153 30.1198 4.65414 30.1123 4.64676C24.5895 -0.820568 15.6352 -0.820568 10.1123 4.64676C10.1076 4.65147 10.1028 4.65617 10.0981 4.66088ZM29.1568 21.2772C26.2468 22.2494 23.192 22.7473 20.1123 22.7473C17.0326 22.7473 13.9779 22.2494 11.0679 21.2772C11.3832 21.6913 11.7313 22.0887 12.1123 22.4659C16.5306 26.8398 23.694 26.8398 28.1123 22.4659C28.4933 22.0887 28.8415 21.6913 29.1568 21.2772ZM12.3174 6.42866C13.0677 6.91937 13.8655 7.33928 14.7003 7.68162C16.4161 8.38518 18.2551 8.7473 20.1123 8.7473C21.9695 8.7473 23.8085 8.38518 25.5243 7.68162C26.3591 7.33928 27.1569 6.91936 27.9073 6.42864C23.5441 2.31879 16.6805 2.3188 12.3174 6.42866Z" fill="#3B4158"/>
</g>
<defs>
<clipPath id="clip0_211_718">
<rect width="40" height="28" fill="white" transform="translate(0.112305 0.546265)"/>
</clipPath>
</defs>
</svg>
