<svg width="41" height="28" viewBox="0 0 41 28" fill="none" xmlns="http://www.w3.org/2000/svg">
<g clip-path="url(#clip0_211_759)">
<path d="M38.4375 1.39001C38.4375 1.85601 38.8199 2.23376 39.2917 2.23376H40.1458C40.6176 2.23376 41 1.85601 41 1.39001C41 0.924025 40.6176 0.546265 40.1458 0.546265H39.2917C38.8199 0.546265 38.4375 0.924025 38.4375 1.39001Z" fill="#212326"/>
<path d="M13.6667 27.5463H17.8161L16.6081 26.353C16.2877 26.0366 15.8532 25.8588 15.4001 25.8588H13.6667C7.06225 25.8588 1.70833 20.5701 1.70833 14.0463C1.70833 7.52239 7.06225 2.23377 13.6667 2.23376H27.3333C33.9378 2.23376 39.2917 7.52239 39.2917 14.0463C39.2917 20.5701 33.9378 25.8588 27.3333 25.8588H22.2209C21.5413 25.8588 20.8895 25.5921 20.4089 25.1174L18.9937 23.7194C18.1928 22.9283 17.1064 22.4838 15.9737 22.4838H13.6667C8.94921 22.4838 5.125 18.7062 5.125 14.0463C5.125 9.38633 8.94921 5.60876 13.6667 5.60876H27.3333C32.0508 5.60876 35.875 9.38633 35.875 14.0463C35.875 18.7062 32.0508 22.4838 27.3333 22.4838H24.0507C23.371 22.4838 22.7193 22.2171 22.2387 21.7424L20.8234 20.3444C20.0225 19.5533 18.9362 19.1088 17.8035 19.1088H13.6667C10.8362 19.1088 8.54167 16.8422 8.54167 14.0463C8.54167 11.2503 10.8362 8.98376 13.6667 8.98376H27.3333C30.1638 8.98376 32.4583 11.2503 32.4583 14.0463C32.4583 16.8081 30.2194 19.0534 27.4367 19.1078L27.4361 19.1088H26.1861C25.5064 19.1088 24.8547 18.8421 24.3741 18.3674L22.9588 16.9694C22.3017 16.3202 21.4524 15.9045 20.5429 15.7762L20.5 15.7338H13.6667C12.7232 15.7338 11.9583 14.9782 11.9583 14.0463C11.9583 13.1143 12.7232 12.3588 13.6667 12.3588H27.3333C28.2768 12.3588 29.0417 13.1143 29.0417 14.0463C29.0417 14.9782 28.2768 15.7338 27.3333 15.7338H23.9167L25.1247 16.927C25.445 17.2435 25.8795 17.4213 26.3326 17.4213H27.3333C29.2203 17.4213 30.75 15.9102 30.75 14.0463C30.75 12.1823 29.2203 10.6713 27.3333 10.6713H13.6667C11.7797 10.6713 10.25 12.1823 10.25 14.0463C10.25 15.9102 11.7797 17.4213 13.6667 17.4213H19.9389C20.6186 17.4213 21.2703 17.688 21.7509 18.1626L23.1662 19.5606C23.9671 20.3518 25.0534 20.7963 26.1861 20.7963H27.7604V20.7833C31.3354 20.5655 34.1667 17.6325 34.1667 14.0463C34.1667 10.3184 31.1072 7.29626 27.3333 7.29626H13.6667C9.89275 7.29626 6.83333 10.3184 6.83333 14.0463C6.83333 17.7742 9.89275 20.7963 13.6667 20.7963H17.8035C18.4831 20.7963 19.1349 21.063 19.6155 21.5376L21.0307 22.9356C21.8317 23.7268 22.918 24.1713 24.0507 24.1713H27.3333C32.9943 24.1713 37.5833 19.6382 37.5833 14.0463C37.5833 8.45436 32.9943 3.92126 27.3333 3.92126H13.6667C8.00573 3.92126 3.41667 8.45436 3.41667 14.0463C3.41667 19.6382 8.00573 24.1713 13.6667 24.1713H15.9737C16.6534 24.1713 17.3051 24.438 17.7857 24.9126L19.201 26.3106C20.0019 27.1018 21.0882 27.5463 22.2209 27.5463H27.3333C34.8812 27.5463 41 21.5021 41 14.0463C41 6.59042 34.8812 0.546264 27.3333 0.546265L13.6667 0.546267C6.11877 0.546268 -6.59857e-07 6.59042 0 14.0463C6.59857e-07 21.5021 6.11878 27.5463 13.6667 27.5463Z" fill="#212326"/>
</g>
<defs>
<clipPath id="clip0_211_759">
<rect width="41" height="27" fill="white" transform="translate(0 0.546265)"/>
</clipPath>
</defs>
</svg>
