<svg width="48" height="49" viewBox="0 0 48 49" fill="none" xmlns="http://www.w3.org/2000/svg">
<path d="M23.2958 29.8475L23.9031 29.3366C25.7081 27.8181 27.0026 25.7813 27.6109 23.5024C28.2193 21.2234 28.1121 18.8124 27.304 16.5964C26.4958 14.3804 25.0258 12.4664 23.0932 11.1141C21.1605 9.76175 18.8588 9.03641 16.5 9.03641C14.1412 9.03641 11.8394 9.76175 9.90681 11.1141C7.97418 12.4664 6.50414 14.3804 5.69599 16.5964C4.88785 18.8124 4.78068 21.2234 5.38904 23.5024C5.99739 25.7813 7.29183 27.8181 9.09686 29.3366L9.70421 29.8475L8.98113 30.1748C6.00796 31.5202 3.44947 33.6375 1.57166 36.3066L23.2958 29.8475ZM23.2958 29.8475L24.0188 30.1748M23.2958 29.8475L24.0188 30.1748M24.0188 30.1748C26.9921 31.5203 29.5507 33.6377 31.4285 36.3069L31.4357 36.3171L31.4433 36.3269C31.5892 36.5138 31.6956 36.7284 31.756 36.9576C31.8165 37.1868 31.8297 37.426 31.7949 37.6605C31.7601 37.895 31.678 38.12 31.5536 38.3218C31.4293 38.5237 31.2652 38.6981 31.0713 38.8346C30.8775 38.9711 30.6579 39.0668 30.426 39.1158C30.194 39.1649 29.9545 39.1663 29.722 39.12C29.4895 39.0737 29.2688 38.9806 29.0734 38.8464C28.8779 38.7122 28.7118 38.5397 28.585 38.3394L28.5786 38.3293L28.5717 38.3194C27.211 36.3814 25.4036 34.7994 23.3024 33.7073C21.2013 32.6152 18.868 32.0451 16.5 32.0451C14.1319 32.0451 11.7987 32.6152 9.69752 33.7073C7.59634 34.7994 5.789 36.3814 4.42827 38.3194L4.42716 38.321C4.2672 38.5507 4.05392 38.7383 3.80561 38.8675C3.55729 38.9967 3.28135 39.0638 3.00142 39.063L2.99836 39.063C2.63935 39.0642 2.28905 38.9525 1.99698 38.7437L1.99458 38.742M24.0188 30.1748L1.99458 38.742M1.99458 38.742C1.61601 38.4748 1.35888 38.0683 1.2796 37.6117C1.20034 37.1553 1.30529 36.6861 1.57142 36.3069L1.99458 38.742ZM46.2901 38.7395L46.2901 38.7396C46.4786 38.6088 46.6393 38.4419 46.7628 38.2486C46.8863 38.0552 46.9701 37.8391 47.0093 37.6131C47.0486 37.387 47.0425 37.1554 46.9915 36.9317C46.9404 36.708 46.8454 36.4967 46.712 36.31L46.7098 36.3069C44.832 33.6377 42.2734 31.5203 39.3001 30.1748L38.575 29.8466L39.1853 29.3358C40.9952 27.8209 42.2942 25.785 42.9055 23.5053C43.5168 21.2257 43.4107 18.813 42.6016 16.5958C41.7924 14.3786 40.3197 12.4646 38.3838 11.1145C36.4479 9.76434 34.1429 9.04363 31.7827 9.05049L31.7804 9.05049C30.7301 9.04874 29.6846 9.19378 28.6744 9.48138L28.6654 9.48393L28.6654 9.48385C28.441 9.54323 28.2307 9.64665 28.0466 9.7881C27.8626 9.92954 27.7086 10.1062 27.5935 10.3077C27.4783 10.5093 27.4045 10.7317 27.3762 10.9621C27.3478 11.1925 27.3656 11.4262 27.4285 11.6496C27.4914 11.8731 27.5981 12.0818 27.7424 12.2636L27.3639 12.5639L27.7424 12.2636C27.8867 12.4454 28.0657 12.5966 28.269 12.7086C28.4723 12.8206 28.6959 12.8909 28.9267 12.9157C29.1575 12.9404 29.3909 12.9189 29.6133 12.8526L29.6191 12.8509L29.6191 12.8509C30.3225 12.6502 31.0506 12.5491 31.7822 12.5505M46.2901 38.7395L43.4437 38.6067L43.8524 38.3187C43.8523 38.3185 43.8521 38.3183 43.852 38.3181C42.4885 36.3838 40.6807 34.8051 38.5805 33.7145C36.4801 32.6237 34.1485 32.0531 31.7818 32.0505H31.7812C31.3171 32.0505 30.872 31.8661 30.5438 31.5379C30.2156 31.2097 30.0312 30.7646 30.0312 30.3005C30.0312 29.8364 30.2156 29.3912 30.5438 29.0631C30.872 28.7349 31.3171 28.5505 31.7812 28.5505C33.903 28.5505 35.9378 27.7076 37.4381 26.2073C38.9384 24.7071 39.7812 22.6722 39.7812 20.5505C39.7812 18.4288 38.9384 16.3939 37.4381 14.8936C35.938 13.3936 33.9036 12.5507 31.7822 12.5505M46.2901 38.7395L46.2842 38.7437M46.2901 38.7395L46.2842 38.7437M31.7822 12.5505L31.7812 13.0505V12.5505C31.7815 12.5505 31.7819 12.5505 31.7822 12.5505ZM39.5062 29.7192L39.7124 29.2637C39.7811 29.2948 39.8497 29.3263 39.918 29.3582C39.7838 29.4815 39.6465 29.6019 39.5062 29.7192ZM39.5062 29.7192L39.8272 30.1026C39.8862 30.0532 39.9448 30.0032 40.0029 29.9528C39.8386 29.8726 39.6731 29.7947 39.5062 29.7192ZM46.2842 38.7437C45.9923 38.9524 45.6423 39.064 45.2835 39.063L46.2842 38.7437ZM9.84823 16.1059C8.96918 17.4215 8.49998 18.9682 8.49998 20.5505C8.49998 22.6722 9.34284 24.7071 10.8431 26.2073C12.3434 27.7076 14.3783 28.5505 16.5 28.5505C18.0822 28.5505 19.629 28.0813 20.9445 27.2022C22.2601 26.3232 23.2855 25.0738 23.891 23.612C24.4965 22.1501 24.6549 20.5416 24.3463 18.9898C24.0376 17.4379 23.2757 16.0125 22.1568 14.8936C21.038 13.7748 19.6126 13.0129 18.0607 12.7042C16.5089 12.3955 14.9003 12.5539 13.4385 13.1595C11.9767 13.765 10.7273 14.7903 9.84823 16.1059Z" fill="#4CAF4F" stroke="#4CAF4F"/>
</svg>
