<svg width="442" height="434" viewBox="0 0 442 434" fill="none" xmlns="http://www.w3.org/2000/svg">
<path d="M220.766 381.295C315.327 381.295 391.984 376.82 391.984 371.299C391.984 365.778 315.327 361.303 220.766 361.303C126.206 361.303 49.5488 365.778 49.5488 371.299C49.5488 376.82 126.206 381.295 220.766 381.295Z" fill="#F5F5F5"/>
<path d="M308.411 148.051L299.651 144.519C299.651 144.519 288.091 165.598 284.78 166.666C280.276 168.114 270.951 172.141 265.423 172.848C264.672 173.731 263.445 176.477 263.56 177.475C270.986 179.956 287.305 176.663 290.802 174.066C298.759 168.176 308.411 148.051 308.411 148.051Z" fill="#E58A7B"/>
<path d="M311.104 143.256C312.738 149.288 303.889 161.421 303.889 161.421L292.295 154.922C292.295 154.922 294.467 149.932 297.116 144.855C301.364 136.651 309.241 136.377 311.104 143.256Z" fill="#4CAF4F"/>
<path opacity="0.2" d="M311.104 143.256C312.738 149.288 303.889 161.421 303.889 161.421L292.295 154.922C292.295 154.922 294.467 149.932 297.116 144.855C301.364 136.651 309.241 136.377 311.104 143.256Z" fill="black"/>
<path opacity="0.2" d="M296.896 157.518L301.461 160.079L302.265 146.064C299.607 148.104 297.734 154.25 296.896 157.518Z" fill="black"/>
<path d="M303.474 138.717C303.474 138.717 294.449 158.798 299.712 196.187H335.274C335.839 190.73 333.967 164.097 340.74 138.382C336.839 137.619 332.892 137.115 328.924 136.872C323.892 136.58 318.847 136.58 313.815 136.872C310.327 137.226 306.87 137.843 303.474 138.717Z" fill="#4CAF4F"/>
<path opacity="0.2" d="M303.474 138.717C303.474 138.717 294.449 158.798 299.712 196.187H335.274C335.839 190.73 333.967 164.097 340.74 138.382C336.839 137.619 332.892 137.115 328.924 136.872C323.892 136.58 318.847 136.58 313.815 136.872C310.327 137.226 306.87 137.843 303.474 138.717Z" fill="black"/>
<g style="mix-blend-mode:multiply">
<path d="M295.226 372.094C295.173 373.048 308.658 373.816 325.339 373.816C342.02 373.816 355.602 373.048 355.655 372.094C355.708 371.14 342.232 370.381 325.542 370.381C308.852 370.381 295.288 371.149 295.226 372.094Z" fill="#E8ECF1"/>
</g>
<path d="M318.964 347.035L312.657 349.476L318.09 363.512L324.397 361.07L318.964 347.035Z" fill="#E58A7B"/>
<path d="M347.089 365.303H340.439L338.002 349.911H344.652L347.089 365.303Z" fill="#E58A7B"/>
<path d="M339.98 364.535H347.451C347.581 364.535 347.706 364.582 347.804 364.666C347.903 364.75 347.969 364.866 347.99 364.994L348.952 370.902C348.972 371.05 348.961 371.201 348.917 371.344C348.874 371.487 348.801 371.619 348.702 371.732C348.603 371.844 348.481 371.934 348.344 371.995C348.208 372.056 348.06 372.086 347.91 372.085C345.305 372.041 344.051 371.882 340.766 371.882C338.744 371.882 334.585 372.094 331.777 372.094C328.968 372.094 328.783 369.339 329.94 369.083C335.132 367.961 337.146 366.433 338.876 364.95C339.182 364.682 339.574 364.534 339.98 364.535Z" fill="#263238"/>
<path d="M317.904 362.256L324.968 360.19C325.094 360.155 325.229 360.163 325.349 360.215C325.47 360.266 325.569 360.357 325.63 360.473L328.28 365.771C328.341 365.906 328.373 366.052 328.372 366.2C328.371 366.347 328.338 366.493 328.275 366.627C328.212 366.761 328.12 366.879 328.007 366.974C327.893 367.068 327.76 367.137 327.617 367.175C325.048 367.882 323.326 368.314 320.111 369.25C317.895 369.895 315.634 370.946 313.444 371.643C311.925 372.129 308.358 372.147 306.512 372.147C303.783 372.147 303.174 369.268 304.349 369.136C307.307 368.809 307.704 368.959 309.338 368.138C312.011 366.969 314.434 365.296 316.473 363.21C316.858 362.772 317.351 362.443 317.904 362.256Z" fill="#263238"/>
<path d="M266.536 172.812L259.224 169.748L256.213 177.855C259.21 178.311 262.258 178.311 265.255 177.855L266.536 172.812Z" fill="#E58A7B"/>
<path d="M253.784 169.536L253.59 174.923L256.213 177.837L259.224 169.731L253.784 169.536Z" fill="#E58A7B"/>
<path d="M319.829 348.227L313.502 350.669L316.304 357.927L322.631 355.484L319.829 348.227Z" fill="#CF6F64"/>
<path d="M344.652 349.911H338.002L339.265 357.85H345.914L344.652 349.911Z" fill="#CF6F64"/>
<path opacity="0.2" d="M298.582 186.076C298.715 187.674 298.865 189.308 299.059 190.986L325.498 182.403C329.627 181.179 333.215 178.584 335.671 175.047C335.777 172.689 335.909 170.207 336.112 167.62C336.201 166.366 336.307 165.077 336.422 163.77C336.536 162.463 336.695 161.015 336.863 159.619L298.582 186.076Z" fill="black"/>
<path d="M307.219 157.112L306.335 157.006C306.856 152.59 310.15 149.111 313.621 149.199V150.082C310.583 150.021 307.687 153.155 307.219 157.112Z" fill="white"/>
<path d="M311.925 165.262H311.775V164.379C314.813 164.494 317.665 161.324 318.133 157.376L319.016 157.482C318.548 161.801 315.36 165.262 311.925 165.262Z" fill="white"/>
<path d="M328.43 119.855C327.185 124.721 325.719 133.631 328.924 136.872C328.924 136.872 326.681 141.808 317.648 141.808C309.391 141.808 313.815 136.872 313.815 136.872C319.308 135.582 319.405 131.573 318.681 127.776L328.43 119.855Z" fill="#E58A7B"/>
<path d="M324.456 123.087L318.69 127.776C318.868 128.649 318.972 129.535 318.999 130.425C320.685 132.103 324.067 127.856 324.412 125.683C324.587 124.828 324.602 123.948 324.456 123.087Z" fill="#CF6F64"/>
<path d="M308.773 119.793C309.174 120.489 309.714 121.094 310.36 121.571C311.006 122.048 311.743 122.387 312.526 122.566C314.645 123.034 315.705 121.082 315.122 119.122C314.601 117.356 312.861 114.98 310.707 115.387C310.245 115.482 309.813 115.686 309.447 115.982C309.08 116.279 308.79 116.659 308.601 117.09C308.412 117.522 308.328 117.992 308.358 118.463C308.388 118.933 308.53 119.389 308.773 119.793Z" fill="#CF6F64"/>
<path d="M312.279 104.225C308.976 105.735 307.81 118.857 311.961 120.8C316.111 122.743 318.531 101.355 312.279 104.225Z" fill="#263238"/>
<path d="M329.436 112.534C328.642 119.122 328.553 122.999 325.021 126.372C323.927 127.491 322.544 128.287 321.026 128.67C319.508 129.053 317.914 129.009 316.419 128.543C314.924 128.077 313.587 127.207 312.556 126.029C311.525 124.851 310.839 123.411 310.574 121.868C309.506 115.952 310.98 106.176 317.586 103.554C318.974 102.941 320.5 102.712 322.006 102.888C323.513 103.064 324.945 103.64 326.154 104.557C327.363 105.473 328.305 106.696 328.882 108.098C329.459 109.501 329.651 111.033 329.436 112.534Z" fill="#E58A7B"/>
<path d="M318.584 107.633C323.476 106.388 327.07 105.54 325.781 109.611C324.076 115.051 322.028 120.314 324.774 120.553C326.452 120.703 333.869 117.559 332.925 114.371C332.103 111.598 335.574 110.839 336.192 109.435C338.479 104.348 331.936 105.019 333.101 101.929C334.267 98.838 327.803 93.8575 324.271 96.3389C318.522 100.348 308.658 100.286 313.842 93.6897C317.559 88.983 310.927 89.9455 310.927 89.9455C310.927 89.9455 314.937 92.321 308.19 95.9946C301.055 99.9154 307.598 110.45 318.584 107.633Z" fill="#263238"/>
<path d="M332.033 119.793C331.067 121.191 329.616 122.179 327.962 122.566C325.781 123.034 324.942 121.082 325.763 119.122C326.496 117.356 328.509 114.98 330.593 115.387C332.677 115.793 333.154 118.062 332.033 119.793Z" fill="#E58A7B"/>
<path d="M299.712 196.187C299.712 196.187 293.743 249.613 293.275 269.888C292.798 290.975 313.506 356.773 313.506 356.773L324.103 352.357C324.103 352.357 311.74 292.238 313.506 271.53C315.378 248.95 323.114 196.223 323.114 196.223L299.712 196.187Z" fill="#4CAF4F"/>
<path opacity="0.2" d="M314.548 210.855C309.788 220.728 312.994 240.252 315.572 251.82C316.553 243.652 317.718 234.786 318.822 226.582C318.716 213.972 317.736 204.232 314.548 210.855Z" fill="black"/>
<path d="M323.635 348.86C323.688 348.86 324.889 352.234 324.889 352.234L312.667 357.373L310.742 353.788L323.635 348.86Z" fill="#4CAF4F"/>
<path d="M312.331 196.187C312.331 196.187 316.897 246.999 319.917 266.029C323.237 286.878 336.254 356.313 336.254 356.313H348.431C348.431 356.313 341.137 288.565 339.76 267.919C338.258 245.524 335.274 196.187 335.274 196.187H312.331Z" fill="#4CAF4F"/>
<path d="M348.617 353.143C348.67 353.143 349.023 356.543 349.023 356.543H335.636L334.682 352.64L348.617 353.143Z" fill="#4CAF4F"/>
<path opacity="0.2" d="M343.954 349.116C343.926 349.117 343.9 349.107 343.879 349.089C343.857 349.072 343.844 349.047 343.839 349.019C343.769 348.401 337.19 287.205 335.954 268.66C334.611 248.544 331.909 203.923 331.883 203.472C331.881 203.458 331.883 203.443 331.888 203.429C331.893 203.415 331.9 203.403 331.91 203.392C331.92 203.381 331.932 203.372 331.946 203.366C331.959 203.361 331.974 203.358 331.989 203.358C332.018 203.358 332.045 203.368 332.067 203.388C332.088 203.408 332.101 203.435 332.103 203.464C332.103 203.914 334.832 248.5 336.174 268.652C337.411 287.196 343.989 348.348 344.051 349.011C344.054 349.025 344.053 349.04 344.05 349.054C344.046 349.069 344.039 349.082 344.03 349.094C344.021 349.106 344.009 349.115 343.996 349.122C343.983 349.129 343.969 349.133 343.954 349.134V349.116Z" fill="black"/>
<path d="M319.334 114.371C319.334 114.91 318.999 115.343 318.645 115.343C318.292 115.343 318.036 114.91 318.071 114.371C318.107 113.832 318.407 113.4 318.76 113.4C319.113 113.4 319.37 113.841 319.334 114.371Z" fill="#263238"/>
<path d="M313.276 114.371C313.276 114.91 312.932 115.343 312.588 115.343C312.243 115.343 311.978 114.91 312.005 114.371C312.031 113.832 312.349 113.4 312.702 113.4C313.056 113.4 313.312 113.841 313.276 114.371Z" fill="#263238"/>
<path d="M315.184 114.645C314.447 116.29 313.497 117.831 312.358 119.228C313.241 120.111 314.892 119.705 314.892 119.705L315.184 114.645Z" fill="#DF5753"/>
<path d="M315.343 121.957C315.322 121.957 315.302 121.953 315.283 121.944C315.264 121.936 315.247 121.925 315.233 121.91C315.219 121.895 315.208 121.877 315.201 121.858C315.194 121.839 315.191 121.818 315.193 121.798C315.195 121.755 315.214 121.714 315.245 121.685C315.276 121.655 315.317 121.639 315.36 121.639C316.036 121.643 316.704 121.497 317.315 121.209C317.926 120.922 318.465 120.502 318.893 119.979C318.923 119.952 318.962 119.937 319.003 119.937C319.044 119.937 319.083 119.952 319.113 119.979C319.142 120.008 319.158 120.048 319.158 120.089C319.158 120.13 319.142 120.17 319.113 120.199C318.656 120.755 318.08 121.202 317.427 121.506C316.775 121.81 316.063 121.964 315.343 121.957Z" fill="#263238"/>
<path d="M320.412 112.746C320.369 112.768 320.322 112.779 320.275 112.779C320.227 112.779 320.18 112.768 320.138 112.746C319.807 112.533 319.432 112.4 319.04 112.359C318.649 112.317 318.254 112.368 317.886 112.508C317.85 112.526 317.811 112.536 317.771 112.539C317.731 112.542 317.691 112.536 317.653 112.523C317.615 112.51 317.58 112.489 317.551 112.462C317.521 112.435 317.497 112.403 317.48 112.367C317.447 112.288 317.446 112.2 317.478 112.121C317.509 112.041 317.57 111.978 317.648 111.943C318.109 111.754 318.61 111.68 319.106 111.726C319.603 111.772 320.081 111.937 320.5 112.208C320.534 112.231 320.563 112.26 320.585 112.294C320.607 112.329 320.623 112.367 320.63 112.407C320.637 112.448 320.637 112.489 320.628 112.529C320.619 112.569 320.603 112.607 320.579 112.64C320.535 112.691 320.476 112.728 320.412 112.746Z" fill="#263238"/>
<path d="M310.936 110.98C310.889 110.969 310.846 110.944 310.813 110.91C310.783 110.881 310.76 110.846 310.744 110.808C310.728 110.771 310.72 110.73 310.72 110.689C310.72 110.648 310.728 110.607 310.744 110.569C310.76 110.531 310.783 110.497 310.813 110.468C311.151 110.088 311.573 109.792 312.044 109.602C312.516 109.412 313.025 109.334 313.532 109.373C313.573 109.379 313.612 109.394 313.647 109.416C313.682 109.438 313.711 109.466 313.735 109.5C313.758 109.534 313.774 109.573 313.782 109.613C313.789 109.653 313.789 109.695 313.78 109.735C313.761 109.817 313.713 109.889 313.644 109.938C313.576 109.986 313.492 110.009 313.409 110C313.008 109.975 312.606 110.041 312.234 110.194C311.862 110.347 311.53 110.583 311.263 110.883C311.223 110.928 311.171 110.96 311.113 110.978C311.056 110.995 310.994 110.996 310.936 110.98Z" fill="#263238"/>
<path d="M344.157 147.071L334.973 144.625C334.973 144.625 325.966 166.799 322.778 168.238C318.451 170.216 307.492 177.069 302.83 180.31C302.574 181.414 302.777 184.336 303.36 185.14C311.307 183.692 326.522 177.837 329.701 174.861C336.951 168.07 344.157 147.071 344.157 147.071Z" fill="#E58A7B"/>
<path d="M337.746 365.7C337.298 365.736 336.851 365.614 336.483 365.356C336.37 365.253 336.285 365.123 336.237 364.977C336.189 364.832 336.179 364.676 336.21 364.526C336.215 364.432 336.246 364.342 336.299 364.264C336.352 364.186 336.425 364.124 336.51 364.084C337.252 363.705 339.327 365.021 339.565 365.171C339.591 365.187 339.612 365.211 339.623 365.24C339.634 365.268 339.635 365.3 339.627 365.33C339.62 365.36 339.604 365.389 339.583 365.412C339.561 365.435 339.534 365.452 339.503 365.462C338.928 365.604 338.339 365.683 337.746 365.7ZM336.863 364.323C336.796 364.308 336.727 364.308 336.66 364.323C336.626 364.34 336.598 364.367 336.579 364.4C336.56 364.433 336.552 364.47 336.554 364.508C336.53 364.611 336.534 364.718 336.565 364.819C336.596 364.92 336.653 365.011 336.731 365.082C337.075 365.391 337.94 365.427 339.08 365.206C338.401 364.759 337.637 364.459 336.837 364.323H336.863Z" fill="#4CAF4F"/>
<path d="M339.459 365.462C339.436 365.469 339.412 365.469 339.389 365.462C338.726 365.091 337.481 363.634 337.667 362.892C337.694 362.775 337.761 362.67 337.855 362.595C337.95 362.519 338.067 362.478 338.188 362.477C338.306 362.461 338.427 362.471 338.541 362.506C338.655 362.542 338.761 362.601 338.85 362.68C339.583 363.307 339.627 365.232 339.627 365.33C339.631 365.359 339.626 365.388 339.611 365.414C339.597 365.439 339.575 365.459 339.548 365.471C339.518 365.477 339.487 365.474 339.459 365.462ZM338.276 362.769H338.214C338.011 362.769 337.985 362.884 337.976 362.928C337.87 363.36 338.656 364.464 339.309 364.985C339.306 364.239 339.075 363.512 338.647 362.901C338.544 362.812 338.412 362.764 338.276 362.769Z" fill="#4CAF4F"/>
<path d="M314.301 364.597C313.76 364.785 313.172 364.785 312.632 364.597C312.509 364.53 312.405 364.434 312.329 364.317C312.254 364.199 312.209 364.065 312.199 363.926C312.188 363.838 312.199 363.75 312.231 363.668C312.264 363.586 312.317 363.514 312.384 363.458C313.091 362.822 315.979 363.458 316.305 363.581C316.336 363.589 316.364 363.608 316.383 363.633C316.402 363.659 316.412 363.69 316.411 363.722C316.413 363.756 316.404 363.788 316.387 363.817C316.369 363.845 316.344 363.867 316.314 363.881C315.664 364.175 314.99 364.414 314.301 364.597ZM312.861 363.546C312.76 363.566 312.666 363.612 312.588 363.678C312.559 363.699 312.538 363.728 312.525 363.761C312.513 363.794 312.51 363.829 312.517 363.864C312.523 363.956 312.552 364.046 312.601 364.125C312.65 364.204 312.719 364.269 312.799 364.314C313.268 364.561 314.354 364.367 315.758 363.775C314.812 363.537 313.833 363.459 312.861 363.546Z" fill="#4CAF4F"/>
<path d="M316.288 363.881H316.217C315.334 363.722 313.568 362.707 313.515 361.947C313.515 361.771 313.594 361.524 314.018 361.382C314.161 361.331 314.313 361.31 314.465 361.319C314.617 361.328 314.765 361.368 314.901 361.435C315.855 361.903 316.358 363.599 316.385 363.678C316.391 363.705 316.39 363.733 316.382 363.759C316.375 363.785 316.36 363.809 316.341 363.828C316.327 363.85 316.309 363.868 316.288 363.881ZM314.195 361.647H314.106C313.833 361.744 313.833 361.859 313.833 361.894C313.833 362.354 315.113 363.193 316.005 363.475C315.8 362.766 315.365 362.145 314.769 361.709C314.591 361.619 314.387 361.597 314.195 361.647Z" fill="#4CAF4F"/>
<path d="M303.58 179.789L294.37 184.027L293.301 186.677L296.701 188.964C296.701 188.964 303.059 188.275 304.87 184.186L303.58 179.789Z" fill="#E58A7B"/>
<path d="M303.969 185.29C303.763 183.521 303.179 181.816 302.256 180.292L303.713 179.197C304.809 180.953 305.508 182.927 305.762 184.981L303.969 185.29Z" fill="#263238"/>
<path d="M305.541 181.043C305.735 181.349 305.831 181.708 305.815 182.07C305.798 182.433 305.67 182.781 305.449 183.069C305.227 183.356 304.922 183.568 304.576 183.676C304.23 183.784 303.858 183.783 303.513 183.673C303.167 183.562 302.864 183.348 302.644 183.059C302.425 182.77 302.299 182.42 302.285 182.058C302.272 181.695 302.37 181.337 302.567 181.032C302.764 180.727 303.05 180.49 303.386 180.354C303.763 180.162 304.202 180.126 304.605 180.255C305.009 180.384 305.345 180.667 305.541 181.043Z" fill="#263238"/>
<path d="M288.144 187.454L289.372 188.69L297.637 185.158L294.37 184.027L288.144 187.454Z" fill="#E58A7B"/>
<path opacity="0.2" d="M323.635 348.86C323.688 348.86 324.889 352.234 324.889 352.234L312.667 357.373L310.742 353.788L323.635 348.86Z" fill="black"/>
<path opacity="0.2" d="M348.617 353.143C348.67 353.143 349.023 356.543 349.023 356.543H335.636L334.682 352.64L348.617 353.143Z" fill="black"/>
<path d="M346.55 144.528C348.979 152.361 339.486 163.072 339.486 163.072L326.372 157.721C327.927 153.194 329.719 148.751 331.741 144.413C335.768 135.733 344.095 136.624 346.55 144.528Z" fill="#4CAF4F"/>
<path opacity="0.2" d="M346.55 144.528C348.979 152.361 339.486 163.072 339.486 163.072L326.372 157.721C327.927 153.194 329.719 148.751 331.741 144.413C335.768 135.733 344.095 136.624 346.55 144.528Z" fill="black"/>
<path d="M216.245 66.0498H210.602V66.9594H216.245V66.0498Z" fill="#4CAF4F"/>
<path d="M289.291 102.049L288.608 117.205L289.516 117.246L290.199 102.09L289.291 102.049Z" fill="#4CAF4F"/>
<path d="M287.535 70.1296H183.333L173.637 287.116H277.839L287.535 70.1296Z" fill="#4CAF4F"/>
<path opacity="0.56" d="M284.427 73.1143H180.225L170.529 290.101H274.731L284.427 73.1143Z" fill="#FAFAFA"/>
<path opacity="0.07" d="M281.318 76.0903H177.117L167.412 293.077H271.613L281.318 76.0903Z" fill="#4CAF4F"/>
<path d="M269.459 170.728H180.516L179.775 187.33H268.717L269.459 170.728Z" fill="white"/>
<path d="M229.429 158.613H181.055L180.728 166.039H229.103L229.429 158.613Z" fill="#4CAF4F"/>
<path d="M267.454 215.535H178.512L177.77 232.137H266.712L267.454 215.535Z" fill="white"/>
<path opacity="0.47" d="M251.144 254.558H191.334L190.442 274.453H250.252L251.144 254.558Z" fill="#4CAF4F"/>
<path d="M247.144 277.544H187.334C187.308 277.551 187.28 277.551 187.254 277.544C187.245 277.518 187.245 277.49 187.254 277.465L188.137 257.56C188.137 257.547 188.14 257.533 188.145 257.521C188.151 257.509 188.159 257.497 188.169 257.488C188.179 257.479 188.19 257.472 188.203 257.468C188.216 257.463 188.23 257.462 188.243 257.463H248.053C248.064 257.458 248.076 257.455 248.089 257.455C248.101 257.455 248.113 257.458 248.124 257.463C248.13 257.474 248.133 257.486 248.133 257.498C248.133 257.511 248.13 257.523 248.124 257.534L247.258 277.482C247.248 277.503 247.231 277.52 247.211 277.531C247.19 277.542 247.167 277.547 247.144 277.544ZM187.44 277.332H247.038L247.921 257.64H188.323L187.44 277.332Z" fill="white"/>
<path d="M218.983 203.419H179.05L178.724 210.855H218.647L218.983 203.419Z" fill="#4CAF4F"/>
<path d="M250.005 117.1C249.776 121.931 248.058 126.574 245.086 130.39C242.886 133.272 240.054 135.612 236.809 137.23C233.564 138.848 229.991 139.701 226.365 139.724C223.435 139.746 220.531 139.168 217.832 138.026C215.134 136.884 212.698 135.201 210.674 133.081C208.651 130.962 207.083 128.45 206.066 125.702C205.05 122.953 204.607 120.026 204.765 117.1C205.076 111.028 207.694 105.304 212.085 101.099C216.476 96.8931 222.308 94.524 228.387 94.4757C231.32 94.4483 234.227 95.0226 236.929 96.163C239.63 97.3035 242.07 98.9858 244.096 101.106C246.122 103.226 247.691 105.74 248.708 108.491C249.724 111.241 250.165 114.172 250.005 117.1Z" fill="white"/>
<path d="M252.133 99.2089C252.075 100.494 251.618 101.728 250.826 102.741C250.24 103.507 249.486 104.128 248.623 104.558C247.76 104.988 246.81 105.216 245.846 105.223C244.911 105.228 243.99 105.005 243.162 104.573C242.333 104.14 241.624 103.511 241.095 102.741C240.394 101.701 240.047 100.462 240.106 99.2089C240.191 97.5968 240.888 96.078 242.055 94.9622C243.221 93.8463 244.77 93.2176 246.384 93.2041C247.163 93.197 247.935 93.3494 248.653 93.652C249.37 93.9546 250.018 94.4009 250.557 94.9635C251.096 95.5261 251.513 96.193 251.784 96.9231C252.055 97.6533 252.174 98.4312 252.133 99.2089Z" fill="#4CAF4F"/>
<path d="M190.098 179.029C190.055 179.741 189.745 180.41 189.228 180.901C188.712 181.393 188.029 181.671 187.316 181.678C186.972 181.683 186.63 181.616 186.313 181.483C185.995 181.35 185.709 181.153 185.47 180.905C185.232 180.656 185.047 180.362 184.927 180.039C184.807 179.717 184.755 179.373 184.773 179.029C184.811 178.316 185.12 177.645 185.637 177.152C186.154 176.66 186.84 176.384 187.554 176.38C187.898 176.377 188.239 176.445 188.556 176.578C188.873 176.712 189.159 176.908 189.397 177.156C189.635 177.405 189.82 177.699 189.94 178.021C190.061 178.343 190.114 178.686 190.098 179.029Z" fill="#263238"/>
<path d="M202.001 179.029C201.961 179.742 201.651 180.412 201.134 180.904C200.618 181.396 199.933 181.673 199.22 181.678C198.876 181.681 198.536 181.614 198.219 181.48C197.903 181.347 197.617 181.15 197.38 180.902C197.143 180.653 196.958 180.359 196.839 180.037C196.719 179.715 196.667 179.372 196.685 179.029C196.723 178.318 197.032 177.648 197.547 177.155C198.062 176.663 198.746 176.386 199.458 176.38C199.802 176.376 200.144 176.443 200.461 176.576C200.778 176.709 201.065 176.905 201.304 177.154C201.542 177.402 201.727 177.697 201.847 178.019C201.967 178.342 202.019 178.686 202.001 179.029Z" fill="#263238"/>
<path d="M213.914 179.029C213.873 179.742 213.563 180.412 213.047 180.904C212.53 181.396 211.846 181.673 211.132 181.678C210.788 181.681 210.448 181.614 210.131 181.48C209.814 181.347 209.528 181.15 209.29 180.902C209.051 180.654 208.867 180.36 208.746 180.038C208.626 179.716 208.572 179.373 208.589 179.029C208.629 178.317 208.939 177.647 209.456 177.155C209.973 176.663 210.657 176.386 211.371 176.38C211.715 176.376 212.056 176.443 212.374 176.576C212.691 176.709 212.978 176.905 213.216 177.154C213.455 177.402 213.639 177.697 213.759 178.019C213.879 178.342 213.932 178.686 213.914 179.029Z" fill="#263238"/>
<path d="M188.093 223.836C188.051 224.548 187.74 225.217 187.224 225.708C186.708 226.2 186.024 226.478 185.311 226.485C184.968 226.488 184.627 226.421 184.31 226.287C183.993 226.154 183.707 225.957 183.469 225.709C183.231 225.461 183.046 225.167 182.925 224.845C182.805 224.523 182.751 224.179 182.768 223.836C182.808 223.124 183.118 222.453 183.635 221.961C184.152 221.469 184.836 221.192 185.55 221.187C185.894 221.184 186.234 221.251 186.551 221.385C186.868 221.518 187.154 221.715 187.392 221.963C187.63 222.211 187.815 222.505 187.936 222.827C188.056 223.149 188.11 223.493 188.093 223.836Z" fill="#263238"/>
<path d="M199.997 223.836C199.956 224.547 199.648 225.216 199.133 225.708C198.618 226.199 197.936 226.477 197.224 226.485C196.88 226.489 196.538 226.423 196.221 226.29C195.904 226.157 195.617 225.96 195.378 225.712C195.14 225.463 194.955 225.169 194.835 224.846C194.715 224.523 194.663 224.18 194.681 223.836C194.721 223.124 195.031 222.453 195.548 221.961C196.064 221.469 196.749 221.192 197.462 221.187C197.806 221.184 198.146 221.251 198.463 221.385C198.779 221.519 199.065 221.716 199.302 221.964C199.539 222.212 199.724 222.506 199.843 222.828C199.963 223.15 200.015 223.493 199.997 223.836Z" fill="#263238"/>
<path d="M211.936 223.836C211.895 224.548 211.585 225.219 211.069 225.711C210.552 226.203 209.868 226.48 209.154 226.485C208.811 226.487 208.47 226.418 208.154 226.285C207.838 226.151 207.552 225.954 207.314 225.706C207.077 225.458 206.892 225.165 206.771 224.843C206.65 224.522 206.595 224.179 206.611 223.836C206.653 223.124 206.964 222.455 207.48 221.964C207.996 221.472 208.68 221.194 209.393 221.187C209.737 221.183 210.078 221.249 210.395 221.382C210.713 221.515 211 221.712 211.238 221.96C211.476 222.209 211.661 222.503 211.781 222.826C211.901 223.149 211.954 223.492 211.936 223.836Z" fill="#263238"/>
<path d="M223.822 223.836C223.779 224.548 223.469 225.217 222.953 225.708C222.436 226.2 221.753 226.478 221.04 226.485C220.697 226.487 220.357 226.418 220.04 226.285C219.724 226.151 219.438 225.954 219.201 225.706C218.963 225.458 218.778 225.165 218.657 224.843C218.536 224.522 218.481 224.179 218.497 223.836C218.539 223.124 218.85 222.455 219.366 221.964C219.882 221.472 220.566 221.194 221.279 221.187C221.622 221.184 221.963 221.251 222.28 221.385C222.597 221.518 222.883 221.715 223.121 221.963C223.359 222.211 223.544 222.505 223.665 222.827C223.785 223.149 223.839 223.493 223.822 223.836Z" fill="#263238"/>
<path d="M235.779 223.836C235.736 224.548 235.426 225.217 234.909 225.708C234.393 226.2 233.71 226.478 232.997 226.485C232.653 226.489 232.311 226.423 231.994 226.29C231.677 226.157 231.39 225.96 231.151 225.712C230.913 225.463 230.728 225.169 230.608 224.846C230.488 224.523 230.436 224.18 230.454 223.836C230.494 223.124 230.804 222.453 231.321 221.961C231.837 221.469 232.522 221.192 233.235 221.187C233.579 221.184 233.92 221.251 234.237 221.385C234.554 221.518 234.84 221.715 235.078 221.963C235.316 222.211 235.501 222.505 235.621 222.827C235.742 223.149 235.795 223.493 235.779 223.836Z" fill="#263238"/>
<path d="M233.971 115.922C237.667 112.307 237.864 106.514 234.409 102.981C230.955 99.4491 225.159 99.5158 221.463 103.13C217.766 106.745 217.57 112.538 221.025 116.07C224.479 119.603 230.275 119.536 233.971 115.922Z" fill="#4CAF4F"/>
<path d="M245.086 130.39C242.886 133.272 240.054 135.612 236.809 137.23C233.564 138.848 229.991 139.701 226.365 139.724C222.849 139.754 219.379 138.918 216.262 137.29C213.145 135.662 210.477 133.293 208.492 130.39C212.784 126.116 219.574 123.325 227.098 123.325C234.622 123.325 241.174 126.116 245.086 130.39Z" fill="#4CAF4F"/>
<path opacity="0.1" d="M233.971 115.922C237.667 112.307 237.864 106.514 234.409 102.981C230.955 99.4491 225.159 99.5158 221.463 103.13C217.766 106.745 217.57 112.538 221.025 116.07C224.479 119.603 230.275 119.536 233.971 115.922Z" fill="white"/>
<path opacity="0.1" d="M245.086 130.39C242.886 133.272 240.054 135.612 236.809 137.23C233.564 138.848 229.991 139.701 226.365 139.724C222.849 139.754 219.379 138.918 216.262 137.29C213.145 135.662 210.477 133.293 208.492 130.39C212.784 126.116 219.574 123.325 227.098 123.325C234.622 123.325 241.174 126.116 245.086 130.39Z" fill="white"/>
<path d="M115.161 191.33C114.322 193.167 113.439 195.189 112.67 197.15C111.902 199.11 111.116 201.132 110.436 203.146C109.048 207.114 107.99 211.19 107.275 215.332L107.081 216.63C107.062 216.853 107.083 217.077 107.142 217.292C107.351 218.024 107.679 218.717 108.114 219.341C109.248 220.958 110.563 222.439 112.035 223.757C113.586 225.199 115.213 226.558 116.909 227.827C118.605 229.134 120.388 230.406 122.146 231.607L120.494 234.707C116.298 232.878 112.315 230.595 108.617 227.898C106.644 226.459 104.863 224.774 103.319 222.882C102.403 221.756 101.689 220.481 101.208 219.112C100.929 218.256 100.786 217.362 100.784 216.462C100.784 216.25 100.784 215.941 100.784 215.791V215.359L100.873 214.476C101.379 209.875 102.346 205.337 103.76 200.929C104.449 198.757 105.182 196.593 106.021 194.483C106.86 192.372 107.725 190.306 108.794 188.16L115.161 191.33Z" fill="#E58A7B"/>
<path d="M120.901 231.059L127.144 227.898L125.528 234.751C125.528 234.751 121.245 235.952 119.258 233.868L120.901 231.059Z" fill="#E58A7B"/>
<path d="M132.857 229.02L131.197 234.689L125.528 234.751L127.144 227.898L132.857 229.02Z" fill="#E58A7B"/>
<path d="M141.67 158.268C142.004 159.492 142.469 160.676 143.057 161.801C142.885 161.995 142.664 162.14 142.417 162.219C142.169 162.299 141.905 162.31 141.653 162.251L141.67 158.268Z" fill="#DF5753"/>
<path d="M141.485 158.321C141.851 158.321 142.147 157.867 142.147 157.306C142.147 156.745 141.851 156.29 141.485 156.29C141.119 156.29 140.823 156.745 140.823 157.306C140.823 157.867 141.119 158.321 141.485 158.321Z" fill="#263238"/>
<path d="M141.291 156.326L142.633 155.946C142.633 155.946 141.979 156.988 141.291 156.326Z" fill="#263238"/>
<path d="M124.424 164.75C125.228 168.856 126.031 176.389 123.152 179.135C123.152 179.135 124.283 183.303 131.921 183.303C140.319 183.303 135.93 179.135 135.93 179.135C131.347 178.04 131.462 174.64 132.266 171.444L124.424 164.75Z" fill="#E58A7B"/>
<path d="M122.19 155.39C122.614 162.251 122.649 165.165 126.111 168.689C131.33 173.987 139.666 171.974 141.299 165.156C142.774 158.975 141.838 148.802 135.118 146.073C133.643 145.466 132.037 145.244 130.453 145.43C128.868 145.616 127.357 146.203 126.063 147.136C124.769 148.069 123.734 149.316 123.056 150.76C122.378 152.205 122.08 153.798 122.19 155.39Z" fill="#E58A7B"/>
<path d="M122.87 147.672C119.426 148.926 114.834 147.989 116.635 158.613C118.543 169.863 115.611 173.563 115.611 173.563C115.611 173.563 128.672 176.345 142.006 173.395C142.006 173.395 137.935 166.278 139.074 161.032C140.531 154.409 139.383 151.963 139.383 151.963C139.383 151.963 127.709 145.905 122.87 147.672Z" fill="#263238"/>
<path d="M137.44 158.966C137.444 160.271 137.818 161.548 138.518 162.648C139.454 164.079 140.558 163.531 140.831 162.013C141.079 160.679 140.893 158.321 139.701 157.403C138.509 156.485 137.458 157.385 137.44 158.966Z" fill="#E58A7B"/>
<path d="M119.876 148.828C118.887 146.047 123.603 141.764 133.581 143.53C143.56 145.296 143.993 153.606 143.993 153.606L141.979 151.204L142.068 153.729L131.815 155.699L119.876 148.828Z" fill="#263238"/>
<path d="M120.724 179.603C120.665 179.2 120.766 178.79 121.005 178.46C121.244 178.13 121.603 177.906 122.004 177.837C125.113 177.325 132.177 176.283 135.727 176.777C138.376 177.148 139.065 178.685 139.18 179.948C139.198 180.169 139.168 180.391 139.093 180.6C139.018 180.809 138.899 180.999 138.744 181.158C138.59 181.317 138.403 181.441 138.196 181.521C137.989 181.602 137.768 181.638 137.546 181.625L122.199 180.937C121.837 180.918 121.492 180.776 121.224 180.533C120.955 180.29 120.778 179.961 120.724 179.603Z" fill="#4CAF4F"/>
<path opacity="0.6" d="M120.724 179.603C120.665 179.2 120.766 178.79 121.005 178.46C121.244 178.13 121.603 177.906 122.004 177.837C125.113 177.325 132.177 176.283 135.727 176.777C138.376 177.148 139.065 178.685 139.18 179.948C139.198 180.169 139.168 180.391 139.093 180.6C139.018 180.809 138.899 180.999 138.744 181.158C138.59 181.317 138.403 181.441 138.196 181.521C137.989 181.602 137.768 181.638 137.546 181.625L122.199 180.937C121.837 180.918 121.492 180.776 121.224 180.533C120.955 180.29 120.778 179.961 120.724 179.603Z" fill="black"/>
<path d="M129.599 333.875L135.295 337.831L144.823 324.912L139.127 320.964L129.599 333.875Z" fill="#E58A7B"/>
<path d="M116.317 333.619L122.331 337.045L130.764 323.384L124.751 319.958L116.317 333.619Z" fill="#E58A7B"/>
<path d="M144.814 324.912L139.904 331.57L134.208 327.623L139.118 320.964L144.814 324.912Z" fill="#CF6F64"/>
<path d="M124.742 319.958L130.764 323.393L126.42 330.431L120.397 326.996L124.742 319.958Z" fill="#CF6F64"/>
<path d="M134.403 222.732C134.403 222.732 156.638 250.752 152.461 277.553C149.097 299.197 129.581 328.506 129.581 328.506L120.406 323.949C126.873 310.99 132.392 297.58 136.919 283.823C138.315 279.552 138.723 275.019 138.111 270.567C137.499 266.116 135.884 261.861 133.387 258.125C122.119 241.674 104.069 251.467 116.211 222.732H134.403Z" fill="#4CAF4F"/>
<path opacity="0.6" d="M134.403 222.732C134.403 222.732 156.638 250.752 152.461 277.553C149.097 299.197 129.581 328.506 129.581 328.506L120.406 323.949C126.873 310.99 132.392 297.58 136.919 283.823C138.315 279.552 138.723 275.019 138.111 270.567C137.499 266.116 135.884 261.861 133.387 258.125C122.119 241.674 104.069 251.467 116.211 222.732H134.403Z" fill="black"/>
<path opacity="0.4" d="M145.309 240.729L142.076 237.515C142.076 237.771 148.337 276.423 150.095 287.284C151.132 284.111 151.926 280.864 152.47 277.571C154.537 264.422 150.218 250.99 145.309 240.729Z" fill="black"/>
<path d="M144.328 222.732C144.328 222.732 171.103 257.949 171.862 279.063C172.489 296.724 142.721 330.943 142.721 330.943L134.067 325.344C134.067 325.344 151.49 301.042 155.879 281.191C154.183 261.516 118.331 222.732 118.331 222.732H144.328Z" fill="#4CAF4F"/>
<path opacity="0.6" d="M144.328 222.732C144.328 222.732 171.103 257.949 171.862 279.063C172.489 296.724 142.721 330.943 142.721 330.943L134.067 325.344C134.067 325.344 151.49 301.042 155.879 281.191C154.183 261.516 118.331 222.732 118.331 222.732H144.328Z" fill="black"/>
<path d="M111.204 180.707C108.343 181.387 105.597 191.79 105.597 191.79L116.785 199.26C116.785 199.26 120.512 191.03 119.205 187.427C117.854 183.674 114.799 179.85 111.204 180.707Z" fill="#4CAF4F"/>
<path opacity="0.2" d="M113.394 187.41L112.617 196.479L116.777 199.269C117.925 196.684 118.775 193.976 119.311 191.198L113.394 187.41Z" fill="black"/>
<path d="M147.64 180.91C147.64 180.91 150.942 182.067 144.328 222.723H116.194C116.671 211.243 116.679 204.179 111.204 180.707C115.144 179.895 119.137 179.37 123.152 179.135C127.406 178.83 131.676 178.83 135.93 179.135C141.423 179.639 147.64 180.91 147.64 180.91Z" fill="#4CAF4F"/>
<path d="M150.501 187.409C151.137 189.176 151.808 191.074 152.514 192.902C153.221 194.73 153.892 196.611 154.607 198.465L156.771 204.011L157.318 205.398L157.601 206.086L157.733 206.431C157.733 206.493 157.733 206.493 157.733 206.484C157.572 206.256 157.36 206.069 157.115 205.936C156.766 205.731 156.372 205.612 155.967 205.592C155.631 205.581 155.296 205.645 154.987 205.777C154.581 205.963 154.581 206.042 154.589 206.033C154.663 205.974 154.728 205.906 154.784 205.83C155.273 205.188 155.696 204.499 156.047 203.773C156.462 202.96 156.859 202.095 157.256 201.221C158.033 199.455 158.749 197.627 159.464 195.781C160.179 193.935 160.859 192.072 161.522 190.191L163.535 184.557L166.935 185.44C166.264 189.467 165.398 193.388 164.356 197.379C163.853 199.366 163.261 201.335 162.59 203.322C162.254 204.32 161.884 205.309 161.46 206.325C161.018 207.427 160.474 208.485 159.835 209.486C159.6 209.823 159.34 210.142 159.058 210.44C158.607 210.927 158.06 211.315 157.451 211.579C156.91 211.811 156.325 211.92 155.737 211.897C155.079 211.872 154.438 211.681 153.874 211.341C153.209 210.925 152.657 210.352 152.267 209.672C152.135 209.442 152.02 209.212 151.94 209.045L151.772 208.709L151.437 208.02L150.766 206.651C149.883 204.815 149 202.96 148.231 201.097C147.463 199.234 146.651 197.344 145.891 195.445C145.132 193.547 144.452 191.648 143.807 189.599L150.501 187.409Z" fill="#E58A7B"/>
<path d="M147.64 180.91C151.022 181.714 154.828 191.71 154.828 191.71L144.77 200.267C144.77 200.267 138.262 189.37 139.577 185.776C140.946 182.032 143.224 179.859 147.64 180.91Z" fill="#4CAF4F"/>
<path d="M165.133 181.396L168.666 178.446L171.121 182.27L169.31 185.458C169.31 185.458 166.431 188.107 163.888 186.756C163.485 185.849 163.388 184.835 163.612 183.867C163.837 182.9 164.371 182.032 165.133 181.396Z" fill="#E58A7B"/>
<path d="M175.041 178.455L174.776 179.418L169.187 180.354L168.639 178.446L175.041 178.455Z" fill="#E58A7B"/>
<path d="M143.41 331.393L133.325 324.876L135.136 321.733L146.465 328.7L143.41 331.393Z" fill="#4CAF4F"/>
<path d="M126.278 336.586C125.394 336.478 124.543 336.176 123.788 335.703C123.757 335.692 123.73 335.672 123.711 335.645C123.692 335.618 123.681 335.586 123.681 335.553C123.681 335.52 123.692 335.487 123.711 335.461C123.73 335.434 123.757 335.413 123.788 335.403C124.062 335.314 126.437 334.581 127.126 335.146C127.204 335.211 127.262 335.295 127.297 335.389C127.331 335.484 127.339 335.586 127.32 335.685C127.308 335.844 127.255 335.997 127.167 336.13C127.079 336.263 126.959 336.371 126.817 336.445C126.652 336.535 126.467 336.583 126.278 336.586ZM124.292 335.614C125.395 336.18 126.278 336.383 126.702 336.171C126.795 336.12 126.872 336.046 126.928 335.956C126.984 335.866 127.015 335.764 127.02 335.659C127.02 335.517 127.02 335.455 126.941 335.42C126.57 335.12 125.245 335.35 124.274 335.614H124.292Z" fill="#263238"/>
<path d="M123.85 335.765C123.803 335.764 123.759 335.745 123.726 335.712C123.713 335.687 123.706 335.66 123.706 335.632C123.706 335.604 123.713 335.577 123.726 335.553C123.726 335.473 124.3 333.557 125.201 333.124C125.316 333.072 125.441 333.045 125.568 333.045C125.694 333.045 125.819 333.072 125.934 333.124C126.058 333.163 126.165 333.243 126.239 333.35C126.313 333.457 126.348 333.586 126.34 333.716C126.278 334.511 124.662 335.606 123.921 335.791L123.85 335.765ZM125.563 333.354C125.477 333.356 125.393 333.378 125.316 333.416C124.768 333.681 124.318 334.714 124.097 335.341C124.874 335.014 125.943 334.149 125.978 333.663C125.978 333.583 125.978 333.486 125.775 333.398C125.709 333.362 125.637 333.338 125.563 333.327V333.354Z" fill="#263238"/>
<path d="M138.88 340.401C137.882 340.401 136.495 339.12 135.736 338.334C135.717 338.307 135.706 338.275 135.706 338.242C135.706 338.208 135.717 338.176 135.736 338.149C135.753 338.12 135.778 338.097 135.808 338.082C135.837 338.066 135.87 338.059 135.904 338.061C136.257 338.061 139.321 338.52 139.754 339.385C139.8 339.463 139.824 339.551 139.824 339.641C139.824 339.731 139.8 339.82 139.754 339.897C139.689 340.032 139.591 340.148 139.469 340.235C139.347 340.321 139.205 340.375 139.056 340.392L138.88 340.401ZM136.319 338.458C137.431 339.535 138.412 340.136 138.968 340.065C139.065 340.052 139.158 340.016 139.238 339.959C139.318 339.902 139.383 339.826 139.427 339.738C139.447 339.708 139.458 339.673 139.458 339.637C139.458 339.601 139.447 339.565 139.427 339.535C139.198 339.058 137.564 338.652 136.319 338.458Z" fill="#263238"/>
<path d="M136.416 338.414C136.218 338.419 136.02 338.405 135.824 338.37C135.797 338.366 135.771 338.354 135.75 338.337C135.728 338.32 135.711 338.298 135.701 338.272C135.688 338.246 135.681 338.218 135.681 338.189C135.681 338.159 135.688 338.131 135.701 338.105C135.754 338.043 136.946 336.603 138.076 336.506C138.396 336.481 138.713 336.583 138.959 336.789C139.304 337.089 139.286 337.354 139.198 337.522C138.977 338.122 137.449 338.414 136.416 338.414ZM136.186 338.087C137.175 338.14 138.756 337.813 138.959 337.381C138.959 337.381 139.03 337.239 138.8 337.045C138.709 336.966 138.602 336.906 138.487 336.869C138.371 336.833 138.25 336.82 138.129 336.833C137.368 337.046 136.69 337.486 136.186 338.096V338.087Z" fill="#263238"/>
<path d="M124.088 334.811L116.6 332.691C116.471 332.652 116.332 332.662 116.21 332.719C116.088 332.776 115.991 332.877 115.938 333.001L113.412 338.679C113.353 338.824 113.325 338.98 113.33 339.137C113.336 339.294 113.374 339.448 113.444 339.589C113.513 339.73 113.611 339.855 113.732 339.955C113.853 340.056 113.994 340.129 114.145 340.171C116.794 340.86 118.066 341.054 121.36 341.999C123.391 342.564 126.287 343.615 129.087 344.41C131.886 345.205 132.822 342.476 131.736 341.893C126.826 339.297 126.437 337.478 125.095 335.535C124.855 335.183 124.498 334.927 124.088 334.811Z" fill="#4CAF4F"/>
<path d="M135.939 337.301L129.546 332.886C129.437 332.807 129.304 332.77 129.17 332.783C129.037 332.796 128.913 332.858 128.822 332.956L124.583 337.513C124.48 337.631 124.403 337.769 124.357 337.919C124.311 338.069 124.298 338.227 124.318 338.382C124.338 338.538 124.391 338.687 124.473 338.82C124.555 338.954 124.665 339.068 124.795 339.156C127.047 340.666 128.212 341.275 131.029 343.226C132.795 344.427 136.213 347.094 138.597 348.754C140.981 350.415 142.756 348.136 141.909 347.236C138.111 343.182 137.281 340.639 136.654 338.334C136.546 337.916 136.292 337.55 135.939 337.301Z" fill="#4CAF4F"/>
<path d="M130.756 329.089L119.232 323.358L120.424 320.231L132.734 326.272L130.756 329.089Z" fill="#4CAF4F"/>
<path d="M115.77 221.072L114.799 223.615C114.701 223.809 114.931 224.013 115.258 224.013H144.47C144.726 224.013 144.938 223.889 144.955 223.73L145.202 221.204C145.202 221.037 144.999 220.887 144.726 220.887H116.229C116.143 220.878 116.057 220.891 115.977 220.923C115.897 220.956 115.826 221.007 115.77 221.072Z" fill="#4CAF4F"/>
<path opacity="0.4" d="M115.77 221.072L114.799 223.615C114.701 223.809 114.931 224.013 115.258 224.013H144.47C144.726 224.013 144.938 223.889 144.955 223.73L145.202 221.204C145.202 221.037 144.999 220.887 144.726 220.887H116.229C116.143 220.878 116.057 220.891 115.977 220.923C115.897 220.956 115.826 221.007 115.77 221.072Z" fill="white"/>
<path d="M120.371 224.26H119.602C119.452 224.26 119.338 224.18 119.346 224.083L119.708 220.807C119.708 220.719 119.85 220.639 120 220.639H120.768C120.918 220.639 121.033 220.719 121.024 220.807L120.662 224.083C120.653 224.18 120.521 224.26 120.371 224.26Z" fill="#4CAF4F"/>
<path d="M138.385 224.26H137.626C137.476 224.26 137.361 224.18 137.37 224.083L137.723 220.807C137.723 220.719 137.873 220.639 138.023 220.639H138.783C138.933 220.639 139.056 220.719 139.039 220.807L138.686 224.083C138.641 224.18 138.544 224.26 138.385 224.26Z" fill="#4CAF4F"/>
<g style="mix-blend-mode:multiply">
<path d="M119.7 373.807C132.765 373.807 143.357 373.04 143.357 372.094C143.357 371.148 132.765 370.381 119.7 370.381C106.634 370.381 96.0422 371.148 96.0422 372.094C96.0422 373.04 106.634 373.807 119.7 373.807Z" fill="#F5F5F5"/>
</g>
<path d="M134.111 369.674C129.925 368.456 125.281 366.893 122.472 365.259C122.393 365.206 122.305 365.179 122.225 365.135V346.185H130.694C131.337 346.147 131.941 345.864 132.382 345.396C132.824 344.927 133.07 344.308 133.07 343.664C133.07 343.02 132.824 342.4 132.382 341.931C131.941 341.463 131.337 341.18 130.694 341.142H122.269V254.761H117.183V341.142H108.767C108.424 341.122 108.079 341.172 107.756 341.29C107.432 341.407 107.136 341.59 106.886 341.826C106.635 342.062 106.436 342.347 106.299 342.663C106.163 342.979 106.092 343.319 106.092 343.664C106.092 344.008 106.163 344.348 106.299 344.664C106.436 344.981 106.635 345.265 106.886 345.501C107.136 345.738 107.432 345.92 107.756 346.037C108.079 346.155 108.424 346.205 108.767 346.185H117.183V365.109C117.103 365.109 117.024 365.179 116.944 365.232C114.092 366.893 109.482 368.456 105.297 369.648C105.014 369.733 104.771 369.917 104.612 370.166C104.453 370.415 104.389 370.713 104.431 371.005C104.472 371.298 104.617 371.566 104.839 371.761C105.061 371.955 105.346 372.064 105.641 372.067H133.767C134.049 372.048 134.316 371.933 134.524 371.74C134.731 371.548 134.866 371.29 134.906 371.01C134.947 370.73 134.89 370.445 134.745 370.202C134.6 369.958 134.377 369.772 134.111 369.674Z" fill="#E0E0E0"/>
<path d="M135.409 245.966H104.008C101.481 245.966 99.4332 248.014 99.4332 250.54V259.874C99.4332 262.4 101.481 264.448 104.008 264.448H135.409C137.936 264.448 139.984 262.4 139.984 259.874V250.54C139.984 248.014 137.936 245.966 135.409 245.966Z" fill="#4CAF4F"/>
<path d="M103.716 264.457V266.064C103.716 267.389 105.155 268.466 106.922 268.466H132.531C134.297 268.466 135.736 267.389 135.736 266.064V264.457H103.716Z" fill="#4CAF4F"/>
<path opacity="0.3" d="M103.716 264.457V266.064C103.716 267.389 105.155 268.466 106.922 268.466H132.531C134.297 268.466 135.736 267.389 135.736 266.064V264.457H103.716Z" fill="white"/>
</svg>
